<?xml version="1.0" encoding="UTF-8" standalone="no"?>
<!DOCTYPE svg PUBLIC "-//W3C//DTD SVG 1.1//EN"
 "http://www.w3.org/Graphics/SVG/1.1/DTD/svg11.dtd">
<!-- Generated by graphviz version 2.40.1 (20161225.0304)
 -->
<!-- Title: SerializedFeature Pages: 1 -->
<svg width="240pt" height="152pt"
 viewBox="0.00 0.00 239.54 152.00" xmlns="http://www.w3.org/2000/svg" xmlns:xlink="http://www.w3.org/1999/xlink">
<g id="graph0" class="graph" transform="scale(1 1) rotate(0) translate(4 148)">
<title>SerializedFeature</title>
<polygon fill="#ffffff" stroke="transparent" points="-4,4 -4,-148 235.5442,-148 235.5442,4 -4,4"/>
<!-- Node2 -->
<g id="node1" class="node">
<title>Node2</title>
<polygon fill="#bfbfbf" stroke="#000000" points="14.5442,-.5 14.5442,-19.5 106.5442,-19.5 106.5442,-.5 14.5442,-.5"/>
<text text-anchor="middle" x="60.5442" y="-7.5" font-family="Helvetica,sans-Serif" font-size="10.00" fill="#000000">SerializedFeature</text>
</g>
<!-- Node3 -->
<g id="node2" class="node">
<title>Node3</title>
<polygon fill="#ffffff" stroke="#bfbfbf" points="32.5442,-124.5 32.5442,-143.5 88.5442,-143.5 88.5442,-124.5 32.5442,-124.5"/>
<text text-anchor="middle" x="60.5442" y="-131.5" font-family="Helvetica,sans-Serif" font-size="10.00" fill="#000000">Message</text>
</g>
<!-- Node3&#45;&gt;Node2 -->
<g id="edge1" class="edge">
<title>Node3&#45;&gt;Node2</title>
<path fill="none" stroke="#191970" d="M32.769,-118.9666C13.9155,-106.5665 -6.1355,-87.6996 2.5442,-67 11.1701,-46.4287 31.2418,-29.5376 45.3451,-19.62"/>
<polygon fill="#191970" stroke="#191970" points="31.1672,-122.0905 41.5176,-124.3531 34.8372,-116.1298 31.1672,-122.0905"/>
</g>
<!-- Node4 -->
<g id="node3" class="node">
<title>Node4</title>
<g id="a_node3"><a xlink:href="class_serialized_keypoint.html" target="_top" xlink:title="SerializedKeypoint">
<polygon fill="#ffffff" stroke="#000000" points="11.5442,-67.5 11.5442,-86.5 109.5442,-86.5 109.5442,-67.5 11.5442,-67.5"/>
<text text-anchor="middle" x="60.5442" y="-74.5" font-family="Helvetica,sans-Serif" font-size="10.00" fill="#000000">SerializedKeypoint</text>
</a>
</g>
</g>
<!-- Node3&#45;&gt;Node4 -->
<g id="edge3" class="edge">
<title>Node3&#45;&gt;Node4</title>
<path fill="none" stroke="#191970" d="M60.5442,-114.2342C60.5442,-104.8491 60.5442,-94.0651 60.5442,-86.5265"/>
<polygon fill="#191970" stroke="#191970" points="57.0443,-114.3307 60.5442,-124.3307 64.0443,-114.3308 57.0443,-114.3307"/>
</g>
<!-- Node5 -->
<g id="node4" class="node">
<title>Node5</title>
<g id="a_node4"><a xlink:href="class_serialized_descriptor.html" target="_top" xlink:title="SerializedDescriptor">
<polygon fill="#ffffff" stroke="#000000" points="127.5442,-67.5 127.5442,-86.5 231.5442,-86.5 231.5442,-67.5 127.5442,-67.5"/>
<text text-anchor="middle" x="179.5442" y="-74.5" font-family="Helvetica,sans-Serif" font-size="10.00" fill="#000000">SerializedDescriptor</text>
</a>
</g>
</g>
<!-- Node3&#45;&gt;Node5 -->
<g id="edge5" class="edge">
<title>Node3&#45;&gt;Node5</title>
<path fill="none" stroke="#191970" d="M89.5574,-120.1029C111.2698,-109.7028 140.4036,-95.748 159.5613,-86.5716"/>
<polygon fill="#191970" stroke="#191970" points="87.9689,-116.9829 80.4621,-124.4595 90.9929,-123.2961 87.9689,-116.9829"/>
</g>
<!-- Node4&#45;&gt;Node2 -->
<g id="edge2" class="edge">
<title>Node4&#45;&gt;Node2</title>
<path fill="none" stroke="#9a32cd" stroke-dasharray="5,2" d="M60.5442,-57.1079C60.5442,-44.714 60.5442,-29.3263 60.5442,-19.5817"/>
<polygon fill="#9a32cd" stroke="#9a32cd" points="57.0443,-57.4005 60.5442,-67.4005 64.0443,-57.4006 57.0443,-57.4005"/>
<text text-anchor="middle" x="83.5442" y="-41" font-family="Helvetica,sans-Serif" font-size="10.00" fill="#000000"> keypoint_</text>
</g>
<!-- Node5&#45;&gt;Node2 -->
<g id="edge4" class="edge">
<title>Node5&#45;&gt;Node2</title>
<path fill="none" stroke="#9a32cd" stroke-dasharray="5,2" d="M153.7035,-62.3624C140.7533,-55.0348 124.8266,-46.0354 110.5442,-38 99.6188,-31.8533 87.3357,-24.9743 77.678,-19.5729"/>
<polygon fill="#9a32cd" stroke="#9a32cd" points="152.1144,-65.4847 162.5411,-67.3648 155.5627,-59.3929 152.1144,-65.4847"/>
<text text-anchor="middle" x="163.5442" y="-41" font-family="Helvetica,sans-Serif" font-size="10.00" fill="#000000"> briefdescriptor_</text>
</g>
</g>
</svg>
