<?xml version="1.0" encoding="UTF-8" standalone="no"?>
<!DOCTYPE svg PUBLIC "-//W3C//DTD SVG 1.1//EN"
 "http://www.w3.org/Graphics/SVG/1.1/DTD/svg11.dtd">
<!-- Generated by graphviz version 2.40.1 (20161225.0304)
 -->
<!-- Title: SerializedMappoint Pages: 1 -->
<svg width="237pt" height="152pt"
 viewBox="0.00 0.00 237.19 152.00" xmlns="http://www.w3.org/2000/svg" xmlns:xlink="http://www.w3.org/1999/xlink">
<g id="graph0" class="graph" transform="scale(1 1) rotate(0) translate(4 148)">
<title>SerializedMappoint</title>
<polygon fill="#ffffff" stroke="transparent" points="-4,4 -4,-148 233.1879,-148 233.1879,4 -4,4"/>
<!-- Node2 -->
<g id="node1" class="node">
<title>Node2</title>
<polygon fill="#bfbfbf" stroke="#000000" points="14.1879,-.5 14.1879,-19.5 113.1879,-19.5 113.1879,-.5 14.1879,-.5"/>
<text text-anchor="middle" x="63.6879" y="-7.5" font-family="Helvetica,sans-Serif" font-size="10.00" fill="#000000">SerializedMappoint</text>
</g>
<!-- Node3 -->
<g id="node2" class="node">
<title>Node3</title>
<polygon fill="#ffffff" stroke="#bfbfbf" points="35.6879,-124.5 35.6879,-143.5 91.6879,-143.5 91.6879,-124.5 35.6879,-124.5"/>
<text text-anchor="middle" x="63.6879" y="-131.5" font-family="Helvetica,sans-Serif" font-size="10.00" fill="#000000">Message</text>
</g>
<!-- Node3&#45;&gt;Node2 -->
<g id="edge1" class="edge">
<title>Node3&#45;&gt;Node2</title>
<path fill="none" stroke="#191970" d="M35.0076,-119.494C15.0213,-107.2096 -6.5354,-88.242 2.6879,-67 11.7512,-46.1269 32.6407,-29.4174 47.4421,-19.6154"/>
<polygon fill="#191970" stroke="#191970" points="33.2617,-122.5275 43.6724,-124.4943 36.7605,-116.4646 33.2617,-122.5275"/>
</g>
<!-- Node4 -->
<g id="node3" class="node">
<title>Node4</title>
<g id="a_node3"><a xlink:href="class_serialized_descriptor.html" target="_top" xlink:title="SerializedDescriptor">
<polygon fill="#ffffff" stroke="#000000" points="11.6879,-67.5 11.6879,-86.5 115.6879,-86.5 115.6879,-67.5 11.6879,-67.5"/>
<text text-anchor="middle" x="63.6879" y="-74.5" font-family="Helvetica,sans-Serif" font-size="10.00" fill="#000000">SerializedDescriptor</text>
</a>
</g>
</g>
<!-- Node3&#45;&gt;Node4 -->
<g id="edge3" class="edge">
<title>Node3&#45;&gt;Node4</title>
<path fill="none" stroke="#191970" d="M63.6879,-114.2342C63.6879,-104.8491 63.6879,-94.0651 63.6879,-86.5265"/>
<polygon fill="#191970" stroke="#191970" points="60.188,-114.3307 63.6879,-124.3307 67.188,-114.3308 60.188,-114.3307"/>
</g>
<!-- Node5 -->
<g id="node4" class="node">
<title>Node5</title>
<g id="a_node4"><a xlink:href="class_serialized_position.html" target="_top" xlink:title="SerializedPosition">
<polygon fill="#ffffff" stroke="#000000" points="134.1879,-67.5 134.1879,-86.5 229.1879,-86.5 229.1879,-67.5 134.1879,-67.5"/>
<text text-anchor="middle" x="181.6879" y="-74.5" font-family="Helvetica,sans-Serif" font-size="10.00" fill="#000000">SerializedPosition</text>
</a>
</g>
</g>
<!-- Node3&#45;&gt;Node5 -->
<g id="edge5" class="edge">
<title>Node3&#45;&gt;Node5</title>
<path fill="none" stroke="#191970" d="M92.4573,-120.1029C113.9873,-109.7028 142.8763,-95.748 161.8729,-86.5716"/>
<polygon fill="#191970" stroke="#191970" points="90.9206,-116.9582 83.4385,-124.4595 93.9654,-123.2614 90.9206,-116.9582"/>
</g>
<!-- Node4&#45;&gt;Node2 -->
<g id="edge2" class="edge">
<title>Node4&#45;&gt;Node2</title>
<path fill="none" stroke="#9a32cd" stroke-dasharray="5,2" d="M63.6879,-57.1079C63.6879,-44.714 63.6879,-29.3263 63.6879,-19.5817"/>
<polygon fill="#9a32cd" stroke="#9a32cd" points="60.188,-57.4005 63.6879,-67.4005 67.188,-57.4006 60.188,-57.4005"/>
<text text-anchor="middle" x="98.6879" y="-41" font-family="Helvetica,sans-Serif" font-size="10.00" fill="#000000"> briefdescriptor_</text>
</g>
<!-- Node5&#45;&gt;Node2 -->
<g id="edge4" class="edge">
<title>Node5&#45;&gt;Node2</title>
<path fill="none" stroke="#9a32cd" stroke-dasharray="5,2" d="M165.5942,-60.1619C157.721,-52.6308 147.7791,-44.0967 137.6879,-38 124.9904,-30.3285 109.836,-24.1465 96.5576,-19.5625"/>
<polygon fill="#9a32cd" stroke="#9a32cd" points="163.1469,-62.6641 172.7068,-67.2312 168.0815,-57.6993 163.1469,-62.6641"/>
<text text-anchor="middle" x="174.1879" y="-41" font-family="Helvetica,sans-Serif" font-size="10.00" fill="#000000"> position_</text>
</g>
</g>
</svg>
