<?xml version="1.0" encoding="UTF-8" standalone="no"?>
<!DOCTYPE svg PUBLIC "-//W3C//DTD SVG 1.1//EN"
 "http://www.w3.org/Graphics/SVG/1.1/DTD/svg11.dtd">
<!-- Generated by graphviz version 2.40.1 (20161225.0304)
 -->
<!-- Title: Graphical Class Hierarchy Pages: 1 -->
<svg width="240pt" height="496pt"
 viewBox="0.00 0.00 240.00 496.00" xmlns="http://www.w3.org/2000/svg" xmlns:xlink="http://www.w3.org/1999/xlink">
<g id="graph0" class="graph" transform="scale(1 1) rotate(0) translate(4 492)">
<title>Graphical Class Hierarchy</title>
<polygon fill="#ffffff" stroke="transparent" points="-4,4 -4,-492 236,-492 236,4 -4,4"/>
<!-- Node4 -->
<g id="node1" class="node">
<title>Node4</title>
<polygon fill="#ffffff" stroke="#bfbfbf" points="0,-240.5 0,-259.5 56,-259.5 56,-240.5 0,-240.5"/>
<text text-anchor="middle" x="28" y="-247.5" font-family="Helvetica,sans-Serif" font-size="10.00" fill="#000000">Message</text>
</g>
<!-- Node0 -->
<g id="node2" class="node">
<title>Node0</title>
<g id="a_node2"><a xlink:href="class_serialized_descriptor.html" target="_top" xlink:title="SerializedDescriptor">
<polygon fill="#ffffff" stroke="#000000" points="110,-468.5 110,-487.5 214,-487.5 214,-468.5 110,-468.5"/>
<text text-anchor="middle" x="162" y="-475.5" font-family="Helvetica,sans-Serif" font-size="10.00" fill="#000000">SerializedDescriptor</text>
</a>
</g>
</g>
<!-- Node4&#45;&gt;Node0 -->
<g id="edge1" class="edge">
<title>Node4&#45;&gt;Node0</title>
<path fill="none" stroke="#191970" d="M31.5045,-269.5527C40.2426,-316.2099 64.2976,-432.1731 92,-459 97.0658,-463.9057 103.2649,-467.5743 109.8591,-470.3123"/>
<polygon fill="#191970" stroke="#191970" points="34.9098,-268.7178 29.6619,-259.514 28.0248,-269.9816 34.9098,-268.7178"/>
</g>
<!-- Node6 -->
<g id="node3" class="node">
<title>Node6</title>
<g id="a_node3"><a xlink:href="class_serialized_feature.html" target="_top" xlink:title="SerializedFeature">
<polygon fill="#ffffff" stroke="#000000" points="116,-430.5 116,-449.5 208,-449.5 208,-430.5 116,-430.5"/>
<text text-anchor="middle" x="162" y="-437.5" font-family="Helvetica,sans-Serif" font-size="10.00" fill="#000000">SerializedFeature</text>
</a>
</g>
</g>
<!-- Node4&#45;&gt;Node6 -->
<g id="edge2" class="edge">
<title>Node4&#45;&gt;Node6</title>
<path fill="none" stroke="#191970" d="M29.665,-269.9273C33.7324,-305.5826 47.385,-380.3561 92,-421 98.7024,-427.1058 107.1718,-431.2801 115.8841,-434.1262"/>
<polygon fill="#191970" stroke="#191970" points="33.1319,-269.4204 28.6541,-259.8183 26.1666,-270.117 33.1319,-269.4204"/>
</g>
<!-- Node7 -->
<g id="node4" class="node">
<title>Node7</title>
<g id="a_node4"><a xlink:href="class_serialized_k.html" target="_top" xlink:title="SerializedK">
<polygon fill="#ffffff" stroke="#000000" points="129,-392.5 129,-411.5 195,-411.5 195,-392.5 129,-392.5"/>
<text text-anchor="middle" x="162" y="-399.5" font-family="Helvetica,sans-Serif" font-size="10.00" fill="#000000">SerializedK</text>
</a>
</g>
</g>
<!-- Node4&#45;&gt;Node7 -->
<g id="edge3" class="edge">
<title>Node4&#45;&gt;Node7</title>
<path fill="none" stroke="#191970" d="M31.9881,-269.547C38.9634,-298.6728 56.1847,-353.2187 92,-383 102.3602,-391.6148 116.2888,-396.3474 128.9929,-398.9381"/>
<polygon fill="#191970" stroke="#191970" points="35.3923,-268.7316 29.799,-259.7335 28.5602,-270.2557 35.3923,-268.7316"/>
</g>
<!-- Node8 -->
<g id="node5" class="node">
<title>Node8</title>
<g id="a_node5"><a xlink:href="class_serialized_k_array.html" target="_top" xlink:title="SerializedKArray">
<polygon fill="#ffffff" stroke="#000000" points="117.5,-354.5 117.5,-373.5 206.5,-373.5 206.5,-354.5 117.5,-354.5"/>
<text text-anchor="middle" x="162" y="-361.5" font-family="Helvetica,sans-Serif" font-size="10.00" fill="#000000">SerializedKArray</text>
</a>
</g>
</g>
<!-- Node4&#45;&gt;Node8 -->
<g id="edge4" class="edge">
<title>Node4&#45;&gt;Node8</title>
<path fill="none" stroke="#191970" d="M35.7995,-268.9321C45.6864,-290.5721 64.7829,-325.5079 92,-345 99.4736,-350.3524 108.3769,-354.1972 117.2868,-356.959"/>
<polygon fill="#191970" stroke="#191970" points="39.0068,-267.5308 31.7994,-259.7652 32.591,-270.3304 39.0068,-267.5308"/>
</g>
<!-- Node9 -->
<g id="node6" class="node">
<title>Node9</title>
<g id="a_node6"><a xlink:href="class_serialized_keyframe.html" target="_top" xlink:title="SerializedKeyframe">
<polygon fill="#ffffff" stroke="#000000" points="111.5,-316.5 111.5,-335.5 212.5,-335.5 212.5,-316.5 111.5,-316.5"/>
<text text-anchor="middle" x="162" y="-323.5" font-family="Helvetica,sans-Serif" font-size="10.00" fill="#000000">SerializedKeyframe</text>
</a>
</g>
</g>
<!-- Node4&#45;&gt;Node9 -->
<g id="edge5" class="edge">
<title>Node4&#45;&gt;Node9</title>
<path fill="none" stroke="#191970" d="M43.1187,-267.2261C55.1714,-279.95 73.1105,-296.7705 92,-307 99.0868,-310.8378 107.0051,-313.9442 114.8964,-316.445"/>
<polygon fill="#191970" stroke="#191970" points="45.4349,-264.5733 36.0975,-259.5668 40.2748,-269.3034 45.4349,-264.5733"/>
</g>
<!-- Node10 -->
<g id="node7" class="node">
<title>Node10</title>
<g id="a_node7"><a xlink:href="class_serialized_keyframe_array.html" target="_top" xlink:title="SerializedKeyframeArray">
<polygon fill="#ffffff" stroke="#000000" points="99.5,-278.5 99.5,-297.5 224.5,-297.5 224.5,-278.5 99.5,-278.5"/>
<text text-anchor="middle" x="162" y="-285.5" font-family="Helvetica,sans-Serif" font-size="10.00" fill="#000000">SerializedKeyframeArray</text>
</a>
</g>
</g>
<!-- Node4&#45;&gt;Node10 -->
<g id="edge6" class="edge">
<title>Node4&#45;&gt;Node10</title>
<path fill="none" stroke="#191970" d="M66.04,-261.4534C74.5706,-263.9772 83.5859,-266.6095 92,-269 103.1441,-272.1661 115.3188,-275.5105 126.3443,-278.496"/>
<polygon fill="#191970" stroke="#191970" points="66.8962,-258.0566 56.3134,-258.5615 64.9013,-264.7663 66.8962,-258.0566"/>
</g>
<!-- Node11 -->
<g id="node8" class="node">
<title>Node11</title>
<g id="a_node8"><a xlink:href="class_serialized_keyframe_features.html" target="_top" xlink:title="SerializedKeyframeFeatures">
<polygon fill="#ffffff" stroke="#000000" points="92,-240.5 92,-259.5 232,-259.5 232,-240.5 92,-240.5"/>
<text text-anchor="middle" x="162" y="-247.5" font-family="Helvetica,sans-Serif" font-size="10.00" fill="#000000">SerializedKeyframeFeatures</text>
</a>
</g>
</g>
<!-- Node4&#45;&gt;Node11 -->
<g id="edge7" class="edge">
<title>Node4&#45;&gt;Node11</title>
<path fill="none" stroke="#191970" d="M66.2722,-250C74.3583,-250 83.1332,-250 91.9784,-250"/>
<polygon fill="#191970" stroke="#191970" points="66.0908,-246.5001 56.0908,-250 66.0908,-253.5001 66.0908,-246.5001"/>
</g>
<!-- Node12 -->
<g id="node9" class="node">
<title>Node12</title>
<g id="a_node9"><a xlink:href="class_serialized_keyframe_features_array.html" target="_top" xlink:title="SerializedKeyframeFeatures\lArray">
<polygon fill="#ffffff" stroke="#000000" points="92,-191 92,-221 232,-221 232,-191 92,-191"/>
<text text-anchor="start" x="100" y="-209" font-family="Helvetica,sans-Serif" font-size="10.00" fill="#000000">SerializedKeyframeFeatures</text>
<text text-anchor="middle" x="162" y="-198" font-family="Helvetica,sans-Serif" font-size="10.00" fill="#000000">Array</text>
</a>
</g>
</g>
<!-- Node4&#45;&gt;Node12 -->
<g id="edge8" class="edge">
<title>Node4&#45;&gt;Node12</title>
<path fill="none" stroke="#191970" d="M65.9545,-237.5373C81.6116,-232.3962 99.8929,-226.3934 116.2793,-221.0128"/>
<polygon fill="#191970" stroke="#191970" points="64.4998,-234.3311 56.0908,-240.7762 66.6836,-240.9817 64.4998,-234.3311"/>
</g>
<!-- Node13 -->
<g id="node10" class="node">
<title>Node13</title>
<g id="a_node10"><a xlink:href="class_serialized_keypoint.html" target="_top" xlink:title="SerializedKeypoint">
<polygon fill="#ffffff" stroke="#000000" points="113,-152.5 113,-171.5 211,-171.5 211,-152.5 113,-152.5"/>
<text text-anchor="middle" x="162" y="-159.5" font-family="Helvetica,sans-Serif" font-size="10.00" fill="#000000">SerializedKeypoint</text>
</a>
</g>
</g>
<!-- Node4&#45;&gt;Node13 -->
<g id="edge9" class="edge">
<title>Node4&#45;&gt;Node13</title>
<path fill="none" stroke="#191970" d="M40.6526,-231.8391C52.3026,-216.4264 70.9339,-194.8288 92,-182 99.1246,-177.6612 107.2284,-174.2303 115.3328,-171.5275"/>
<polygon fill="#191970" stroke="#191970" points="37.7019,-229.9451 34.6343,-240.0862 43.3564,-234.0715 37.7019,-229.9451"/>
</g>
<!-- Node14 -->
<g id="node11" class="node">
<title>Node14</title>
<g id="a_node11"><a xlink:href="class_serialized_mappoint.html" target="_top" xlink:title="SerializedMappoint">
<polygon fill="#ffffff" stroke="#000000" points="112.5,-114.5 112.5,-133.5 211.5,-133.5 211.5,-114.5 112.5,-114.5"/>
<text text-anchor="middle" x="162" y="-121.5" font-family="Helvetica,sans-Serif" font-size="10.00" fill="#000000">SerializedMappoint</text>
</a>
</g>
</g>
<!-- Node4&#45;&gt;Node14 -->
<g id="edge10" class="edge">
<title>Node4&#45;&gt;Node14</title>
<path fill="none" stroke="#191970" d="M34.3536,-230.8276C43.3431,-206.6935 62.0927,-165.6602 92,-143 98.0221,-138.4372 105.0666,-134.9695 112.3234,-132.3342"/>
<polygon fill="#191970" stroke="#191970" points="31.032,-229.7225 30.9994,-240.3173 37.6319,-232.0553 31.032,-229.7225"/>
</g>
<!-- Node15 -->
<g id="node12" class="node">
<title>Node15</title>
<g id="a_node12"><a xlink:href="class_serialized_mappoint_array.html" target="_top" xlink:title="SerializedMappointArray">
<polygon fill="#ffffff" stroke="#000000" points="101,-76.5 101,-95.5 223,-95.5 223,-76.5 101,-76.5"/>
<text text-anchor="middle" x="162" y="-83.5" font-family="Helvetica,sans-Serif" font-size="10.00" fill="#000000">SerializedMappointArray</text>
</a>
</g>
</g>
<!-- Node4&#45;&gt;Node15 -->
<g id="edge11" class="edge">
<title>Node4&#45;&gt;Node15</title>
<path fill="none" stroke="#191970" d="M31.1932,-230.0587C37.2777,-198.7095 53.5316,-138.0707 92,-105 96.488,-101.1417 101.6875,-98.0598 107.186,-95.5991"/>
<polygon fill="#191970" stroke="#191970" points="27.6987,-229.7189 29.3893,-240.1779 34.59,-230.9474 27.6987,-229.7189"/>
</g>
<!-- Node16 -->
<g id="node13" class="node">
<title>Node16</title>
<g id="a_node13"><a xlink:href="class_serialized_pose.html" target="_top" xlink:title="SerializedPose">
<polygon fill="#ffffff" stroke="#000000" points="121,-38.5 121,-57.5 203,-57.5 203,-38.5 121,-38.5"/>
<text text-anchor="middle" x="162" y="-45.5" font-family="Helvetica,sans-Serif" font-size="10.00" fill="#000000">SerializedPose</text>
</a>
</g>
</g>
<!-- Node4&#45;&gt;Node16 -->
<g id="edge12" class="edge">
<title>Node4&#45;&gt;Node16</title>
<path fill="none" stroke="#191970" d="M29.0807,-230.2667C32.2199,-192.8255 44.4491,-111.2719 92,-67 99.926,-59.6205 110.4266,-55.0549 120.8773,-52.2454"/>
<polygon fill="#191970" stroke="#191970" points="25.5798,-230.1591 28.3693,-240.3801 32.5625,-230.6504 25.5798,-230.1591"/>
</g>
<!-- Node17 -->
<g id="node14" class="node">
<title>Node17</title>
<g id="a_node14"><a xlink:href="class_serialized_position.html" target="_top" xlink:title="SerializedPosition">
<polygon fill="#ffffff" stroke="#000000" points="114.5,-.5 114.5,-19.5 209.5,-19.5 209.5,-.5 114.5,-.5"/>
<text text-anchor="middle" x="162" y="-7.5" font-family="Helvetica,sans-Serif" font-size="10.00" fill="#000000">SerializedPosition</text>
</a>
</g>
</g>
<!-- Node4&#45;&gt;Node17 -->
<g id="edge13" class="edge">
<title>Node4&#45;&gt;Node17</title>
<path fill="none" stroke="#191970" d="M31.1806,-230.3133C39.4202,-181.666 62.8634,-57.65 92,-29 98.1954,-22.908 106.1364,-18.7197 114.432,-15.8514"/>
<polygon fill="#191970" stroke="#191970" points="27.6791,-230.0344 29.4969,-240.4721 34.5849,-231.179 27.6791,-230.0344"/>
</g>
</g>
</svg>
