<?xml version="1.0" encoding="UTF-8" standalone="no"?>
<!DOCTYPE svg PUBLIC "-//W3C//DTD SVG 1.1//EN"
 "http://www.w3.org/Graphics/SVG/1.1/DTD/svg11.dtd">
<!-- Generated by graphviz version 2.40.1 (20161225.0304)
 -->
<!-- Title: /home/alejandro/Development/osmap/include/osmap.pb.h Pages: 1 -->
<svg width="1752pt" height="106pt"
 viewBox="0.00 0.00 1752.00 106.00" xmlns="http://www.w3.org/2000/svg" xmlns:xlink="http://www.w3.org/1999/xlink">
<g id="graph0" class="graph" transform="scale(1 1) rotate(0) translate(4 102)">
<title>/home/alejandro/Development/osmap/include/osmap.pb.h</title>
<polygon fill="#ffffff" stroke="transparent" points="-4,4 -4,-102 1748,-102 1748,4 -4,4"/>
<!-- Node0 -->
<g id="node1" class="node">
<title>Node0</title>
<polygon fill="#bfbfbf" stroke="#000000" points="736.5,-67.5 736.5,-97.5 882.5,-97.5 882.5,-67.5 736.5,-67.5"/>
<text text-anchor="start" x="744.5" y="-85.5" font-family="Helvetica,sans-Serif" font-size="10.00" fill="#000000">/home/alejandro/Development</text>
<text text-anchor="middle" x="809.5" y="-74.5" font-family="Helvetica,sans-Serif" font-size="10.00" fill="#000000">/osmap/include/osmap.pb.h</text>
</g>
<!-- Node1 -->
<g id="node2" class="node">
<title>Node1</title>
<polygon fill="#ffffff" stroke="#bfbfbf" points="0,-6 0,-25 41,-25 41,-6 0,-6"/>
<text text-anchor="middle" x="20.5" y="-13" font-family="Helvetica,sans-Serif" font-size="10.00" fill="#000000">string</text>
</g>
<!-- Node0&#45;&gt;Node1 -->
<g id="edge1" class="edge">
<title>Node0&#45;&gt;Node1</title>
<path fill="none" stroke="#191970" d="M736.2357,-81.3154C571.8605,-78.046 178.1043,-66.6345 50.5,-31 48.8308,-30.5339 47.147,-29.9687 45.4743,-29.3336"/>
<polygon fill="#191970" stroke="#191970" points="46.7474,-26.068 36.1938,-25.1336 43.8612,-32.4453 46.7474,-26.068"/>
</g>
<!-- Node2 -->
<g id="node3" class="node">
<title>Node2</title>
<polygon fill="#ffffff" stroke="#bfbfbf" points="59.5,-.5 59.5,-30.5 169.5,-30.5 169.5,-.5 59.5,-.5"/>
<text text-anchor="start" x="67.5" y="-18.5" font-family="Helvetica,sans-Serif" font-size="10.00" fill="#000000">google/protobuf/stubs</text>
<text text-anchor="middle" x="114.5" y="-7.5" font-family="Helvetica,sans-Serif" font-size="10.00" fill="#000000">/common.h</text>
</g>
<!-- Node0&#45;&gt;Node2 -->
<g id="edge2" class="edge">
<title>Node0&#45;&gt;Node2</title>
<path fill="none" stroke="#191970" d="M736.1827,-80.2305C619.991,-75.8159 386.3971,-63.6145 179.6811,-31.027"/>
<polygon fill="#191970" stroke="#191970" points="179.9738,-27.5295 169.5471,-29.4095 178.8704,-34.442 179.9738,-27.5295"/>
</g>
<!-- Node3 -->
<g id="node4" class="node">
<title>Node3</title>
<polygon fill="#ffffff" stroke="#bfbfbf" points="187.5,-.5 187.5,-30.5 281.5,-30.5 281.5,-.5 187.5,-.5"/>
<text text-anchor="start" x="195.5" y="-18.5" font-family="Helvetica,sans-Serif" font-size="10.00" fill="#000000">google/protobuf/io</text>
<text text-anchor="middle" x="234.5" y="-7.5" font-family="Helvetica,sans-Serif" font-size="10.00" fill="#000000">/coded_stream.h</text>
</g>
<!-- Node0&#45;&gt;Node3 -->
<g id="edge3" class="edge">
<title>Node0&#45;&gt;Node3</title>
<path fill="none" stroke="#191970" d="M736.3129,-79.189C637.382,-73.8366 455.4795,-60.9 291.9687,-31.0781"/>
<polygon fill="#191970" stroke="#191970" points="292.1933,-27.5603 281.7234,-29.1826 290.9198,-34.4435 292.1933,-27.5603"/>
</g>
<!-- Node4 -->
<g id="node5" class="node">
<title>Node4</title>
<polygon fill="#ffffff" stroke="#bfbfbf" points="300,-6 300,-25 419,-25 419,-6 300,-6"/>
<text text-anchor="middle" x="359.5" y="-13" font-family="Helvetica,sans-Serif" font-size="10.00" fill="#000000">google/protobuf/arena.h</text>
</g>
<!-- Node0&#45;&gt;Node4 -->
<g id="edge4" class="edge">
<title>Node0&#45;&gt;Node4</title>
<path fill="none" stroke="#191970" d="M736.3169,-74.6189C659.1976,-65.8506 534.3408,-50.3381 427.5,-31 421.3229,-29.882 414.8589,-28.5811 408.4776,-27.2172"/>
<polygon fill="#191970" stroke="#191970" points="409.0891,-23.7682 398.5708,-25.0395 407.5861,-30.6049 409.0891,-23.7682"/>
</g>
<!-- Node5 -->
<g id="node6" class="node">
<title>Node5</title>
<polygon fill="#ffffff" stroke="#bfbfbf" points="437,-6 437,-25 580,-25 580,-6 437,-6"/>
<text text-anchor="middle" x="508.5" y="-13" font-family="Helvetica,sans-Serif" font-size="10.00" fill="#000000">google/protobuf/arenastring.h</text>
</g>
<!-- Node0&#45;&gt;Node5 -->
<g id="edge5" class="edge">
<title>Node0&#45;&gt;Node5</title>
<path fill="none" stroke="#191970" d="M741.9497,-67.4639C687.3025,-55.2999 611.436,-38.4127 561.2044,-27.2315"/>
<polygon fill="#191970" stroke="#191970" points="561.7244,-23.7617 551.2029,-25.0053 560.2035,-30.5945 561.7244,-23.7617"/>
</g>
<!-- Node6 -->
<g id="node7" class="node">
<title>Node6</title>
<polygon fill="#ffffff" stroke="#bfbfbf" points="598,-.5 598,-30.5 727,-30.5 727,-.5 598,-.5"/>
<text text-anchor="start" x="606" y="-18.5" font-family="Helvetica,sans-Serif" font-size="10.00" fill="#000000">google/protobuf/generated</text>
<text text-anchor="middle" x="662.5" y="-7.5" font-family="Helvetica,sans-Serif" font-size="10.00" fill="#000000">_message_table_driven.h</text>
</g>
<!-- Node0&#45;&gt;Node6 -->
<g id="edge6" class="edge">
<title>Node0&#45;&gt;Node6</title>
<path fill="none" stroke="#191970" d="M776.5103,-67.4639C755.3066,-57.7996 727.5617,-45.154 704.751,-34.7572"/>
<polygon fill="#191970" stroke="#191970" points="706.1846,-31.5643 695.6336,-30.6017 703.2814,-37.9339 706.1846,-31.5643"/>
</g>
<!-- Node7 -->
<g id="node8" class="node">
<title>Node7</title>
<polygon fill="#ffffff" stroke="#bfbfbf" points="745,-.5 745,-30.5 874,-30.5 874,-.5 745,-.5"/>
<text text-anchor="start" x="753" y="-18.5" font-family="Helvetica,sans-Serif" font-size="10.00" fill="#000000">google/protobuf/generated</text>
<text text-anchor="middle" x="809.5" y="-7.5" font-family="Helvetica,sans-Serif" font-size="10.00" fill="#000000">_message_util.h</text>
</g>
<!-- Node0&#45;&gt;Node7 -->
<g id="edge7" class="edge">
<title>Node0&#45;&gt;Node7</title>
<path fill="none" stroke="#191970" d="M809.5,-67.2967C809.5,-59.5013 809.5,-49.7991 809.5,-40.9064"/>
<polygon fill="#191970" stroke="#191970" points="813.0001,-40.6431 809.5,-30.6432 806.0001,-40.6432 813.0001,-40.6431"/>
</g>
<!-- Node8 -->
<g id="node9" class="node">
<title>Node8</title>
<polygon fill="#ffffff" stroke="#bfbfbf" points="892.5,-.5 892.5,-30.5 1006.5,-30.5 1006.5,-.5 892.5,-.5"/>
<text text-anchor="start" x="900.5" y="-18.5" font-family="Helvetica,sans-Serif" font-size="10.00" fill="#000000">google/protobuf/inlined</text>
<text text-anchor="middle" x="949.5" y="-7.5" font-family="Helvetica,sans-Serif" font-size="10.00" fill="#000000">_string_field.h</text>
</g>
<!-- Node0&#45;&gt;Node8 -->
<g id="edge8" class="edge">
<title>Node0&#45;&gt;Node8</title>
<path fill="none" stroke="#191970" d="M840.9187,-67.4639C860.863,-57.9191 886.8839,-45.4663 908.4529,-35.144"/>
<polygon fill="#191970" stroke="#191970" points="910.1924,-38.1917 917.7017,-30.7177 907.1706,-31.8775 910.1924,-38.1917"/>
</g>
<!-- Node9 -->
<g id="node10" class="node">
<title>Node9</title>
<polygon fill="#ffffff" stroke="#bfbfbf" points="1025,-6 1025,-25 1160,-25 1160,-6 1025,-6"/>
<text text-anchor="middle" x="1092.5" y="-13" font-family="Helvetica,sans-Serif" font-size="10.00" fill="#000000">google/protobuf/metadata.h</text>
</g>
<!-- Node0&#45;&gt;Node9 -->
<g id="edge9" class="edge">
<title>Node0&#45;&gt;Node9</title>
<path fill="none" stroke="#191970" d="M873.0107,-67.4639C924.1755,-55.3507 995.1244,-38.5536 1042.3545,-27.3719"/>
<polygon fill="#191970" stroke="#191970" points="1043.4262,-30.715 1052.3508,-25.0053 1041.8134,-23.9033 1043.4262,-30.715"/>
</g>
<!-- Node10 -->
<g id="node11" class="node">
<title>Node10</title>
<polygon fill="#ffffff" stroke="#bfbfbf" points="1178.5,-6 1178.5,-25 1312.5,-25 1312.5,-6 1178.5,-6"/>
<text text-anchor="middle" x="1245.5" y="-13" font-family="Helvetica,sans-Serif" font-size="10.00" fill="#000000">google/protobuf/message.h</text>
</g>
<!-- Node0&#45;&gt;Node10 -->
<g id="edge10" class="edge">
<title>Node0&#45;&gt;Node10</title>
<path fill="none" stroke="#191970" d="M882.7857,-73.3065C955.6709,-63.8599 1070.5884,-48.1459 1169.5,-31 1176.5238,-29.7824 1183.8926,-28.4057 1191.1634,-26.9875"/>
<polygon fill="#191970" stroke="#191970" points="1191.8488,-30.4198 1200.9756,-25.0392 1190.4854,-23.5539 1191.8488,-30.4198"/>
</g>
<!-- Node11 -->
<g id="node12" class="node">
<title>Node11</title>
<polygon fill="#ffffff" stroke="#bfbfbf" points="1330.5,-.5 1330.5,-30.5 1454.5,-30.5 1454.5,-.5 1330.5,-.5"/>
<text text-anchor="start" x="1338.5" y="-18.5" font-family="Helvetica,sans-Serif" font-size="10.00" fill="#000000">google/protobuf/repeated</text>
<text text-anchor="middle" x="1392.5" y="-7.5" font-family="Helvetica,sans-Serif" font-size="10.00" fill="#000000">_field.h</text>
</g>
<!-- Node0&#45;&gt;Node11 -->
<g id="edge11" class="edge">
<title>Node0&#45;&gt;Node11</title>
<path fill="none" stroke="#191970" d="M882.7562,-77.7849C980.4022,-70.9086 1158.7126,-56.292 1320.1232,-31.1109"/>
<polygon fill="#191970" stroke="#191970" points="1320.906,-34.5308 1330.2385,-29.5153 1319.8152,-27.6163 1320.906,-34.5308"/>
</g>
<!-- Node12 -->
<g id="node13" class="node">
<title>Node12</title>
<polygon fill="#ffffff" stroke="#bfbfbf" points="1472.5,-.5 1472.5,-30.5 1600.5,-30.5 1600.5,-.5 1472.5,-.5"/>
<text text-anchor="start" x="1480.5" y="-18.5" font-family="Helvetica,sans-Serif" font-size="10.00" fill="#000000">google/protobuf/extension</text>
<text text-anchor="middle" x="1536.5" y="-7.5" font-family="Helvetica,sans-Serif" font-size="10.00" fill="#000000">_set.h</text>
</g>
<!-- Node0&#45;&gt;Node12 -->
<g id="edge12" class="edge">
<title>Node0&#45;&gt;Node12</title>
<path fill="none" stroke="#191970" d="M882.9173,-79.8479C1002.4403,-74.8411 1246.5957,-61.7431 1462.554,-31.0145"/>
<polygon fill="#191970" stroke="#191970" points="1463.0911,-34.4734 1472.4909,-29.5851 1462.0944,-27.5447 1463.0911,-34.4734"/>
</g>
<!-- Node13 -->
<g id="node14" class="node">
<title>Node13</title>
<polygon fill="#ffffff" stroke="#bfbfbf" points="1619,-.5 1619,-30.5 1744,-30.5 1744,-.5 1619,-.5"/>
<text text-anchor="start" x="1627" y="-18.5" font-family="Helvetica,sans-Serif" font-size="10.00" fill="#000000">google/protobuf/unknown</text>
<text text-anchor="middle" x="1681.5" y="-7.5" font-family="Helvetica,sans-Serif" font-size="10.00" fill="#000000">_field_set.h</text>
</g>
<!-- Node0&#45;&gt;Node13 -->
<g id="edge13" class="edge">
<title>Node0&#45;&gt;Node13</title>
<path fill="none" stroke="#191970" d="M882.665,-81.3996C1022.13,-78.5151 1335.6733,-68.2492 1608.6668,-30.97"/>
<polygon fill="#191970" stroke="#191970" points="1609.3413,-34.4102 1618.7687,-29.5755 1608.384,-27.4759 1609.3413,-34.4102"/>
</g>
</g>
</svg>
