<?xml version="1.0" encoding="UTF-8" standalone="no"?>
<!DOCTYPE svg PUBLIC "-//W3C//DTD SVG 1.1//EN"
 "http://www.w3.org/Graphics/SVG/1.1/DTD/svg11.dtd">
<!-- Generated by graphviz version 2.40.1 (20161225.0304)
 -->
<!-- Title: /home/alejandro/Development/osmap/include/osmap.h Pages: 1 -->
<svg width="2702pt" height="106pt"
 viewBox="0.00 0.00 2702.00 106.00" xmlns="http://www.w3.org/2000/svg" xmlns:xlink="http://www.w3.org/1999/xlink">
<g id="graph0" class="graph" transform="scale(1 1) rotate(0) translate(4 102)">
<title>/home/alejandro/Development/osmap/include/osmap.h</title>
<polygon fill="#ffffff" stroke="transparent" points="-4,4 -4,-102 2698,-102 2698,4 -4,4"/>
<!-- Node0 -->
<g id="node1" class="node">
<title>Node0</title>
<polygon fill="#bfbfbf" stroke="#000000" points="1181,-67.5 1181,-97.5 1327,-97.5 1327,-67.5 1181,-67.5"/>
<text text-anchor="start" x="1189" y="-85.5" font-family="Helvetica,sans-Serif" font-size="10.00" fill="#000000">/home/alejandro/Development</text>
<text text-anchor="middle" x="1254" y="-74.5" font-family="Helvetica,sans-Serif" font-size="10.00" fill="#000000">/osmap/include/osmap.h</text>
</g>
<!-- Node1 -->
<g id="node2" class="node">
<title>Node1</title>
<polygon fill="#ffffff" stroke="#bfbfbf" points="0,-6 0,-25 30,-25 30,-6 0,-6"/>
<text text-anchor="middle" x="15" y="-13" font-family="Helvetica,sans-Serif" font-size="10.00" fill="#000000">set</text>
</g>
<!-- Node0&#45;&gt;Node1 -->
<g id="edge1" class="edge">
<title>Node0&#45;&gt;Node1</title>
<path fill="none" stroke="#191970" d="M1180.9606,-81.6348C935.1858,-78.416 147.4583,-65.4913 39,-31 37.9601,-30.6693 36.9217,-30.281 35.8922,-29.8473"/>
<polygon fill="#191970" stroke="#191970" points="37.5259,-26.7518 27.0677,-25.0555 34.1854,-32.9033 37.5259,-26.7518"/>
</g>
<!-- Node2 -->
<g id="node3" class="node">
<title>Node2</title>
<polygon fill="#ffffff" stroke="#bfbfbf" points="48,-6 48,-25 92,-25 92,-6 48,-6"/>
<text text-anchor="middle" x="70" y="-13" font-family="Helvetica,sans-Serif" font-size="10.00" fill="#000000">vector</text>
</g>
<!-- Node0&#45;&gt;Node2 -->
<g id="edge2" class="edge">
<title>Node0&#45;&gt;Node2</title>
<path fill="none" stroke="#191970" d="M1180.7076,-80.9995C943.333,-75.8939 204.9382,-57.9988 101,-31 99.0781,-30.5008 97.1366,-29.8727 95.2124,-29.1573"/>
<polygon fill="#191970" stroke="#191970" points="96.469,-25.8861 85.9076,-25.0446 93.639,-32.2885 96.469,-25.8861"/>
</g>
<!-- Node3 -->
<g id="node4" class="node">
<title>Node3</title>
<polygon fill="#ffffff" stroke="#bfbfbf" points="110.5,-6 110.5,-25 145.5,-25 145.5,-6 110.5,-6"/>
<text text-anchor="middle" x="128" y="-13" font-family="Helvetica,sans-Serif" font-size="10.00" fill="#000000">map</text>
</g>
<!-- Node0&#45;&gt;Node3 -->
<g id="edge3" class="edge">
<title>Node0&#45;&gt;Node3</title>
<path fill="none" stroke="#191970" d="M1180.7902,-81.1354C950.7092,-76.5602 251.6609,-60.3759 154,-31 152.7545,-30.6254 151.5068,-30.1783 150.2689,-29.6763"/>
<polygon fill="#191970" stroke="#191970" points="151.673,-26.4636 141.1738,-25.0435 148.4959,-32.7011 151.673,-26.4636"/>
</g>
<!-- Node4 -->
<g id="node5" class="node">
<title>Node4</title>
<polygon fill="#ffffff" stroke="#bfbfbf" points="163.5,-6 163.5,-25 204.5,-25 204.5,-6 163.5,-6"/>
<text text-anchor="middle" x="184" y="-13" font-family="Helvetica,sans-Serif" font-size="10.00" fill="#000000">bitset</text>
</g>
<!-- Node0&#45;&gt;Node4 -->
<g id="edge4" class="edge">
<title>Node0&#45;&gt;Node4</title>
<path fill="none" stroke="#191970" d="M1180.8974,-80.737C959.4502,-75.1379 305.48,-56.6087 213,-31 211.3357,-30.5391 209.6599,-29.9708 207.9984,-29.3268"/>
<polygon fill="#191970" stroke="#191970" points="209.3613,-26.1003 198.8204,-25.0324 206.3947,-32.4406 209.3613,-26.1003"/>
</g>
<!-- Node5 -->
<g id="node6" class="node">
<title>Node5</title>
<polygon fill="#ffffff" stroke="#bfbfbf" points="222.5,-6 222.5,-25 269.5,-25 269.5,-6 222.5,-6"/>
<text text-anchor="middle" x="246" y="-13" font-family="Helvetica,sans-Serif" font-size="10.00" fill="#000000">iterator</text>
</g>
<!-- Node0&#45;&gt;Node5 -->
<g id="edge5" class="edge">
<title>Node0&#45;&gt;Node5</title>
<path fill="none" stroke="#191970" d="M1180.7483,-80.2559C968.9724,-73.5404 365.5187,-52.7183 279,-31 276.8052,-30.4491 274.5799,-29.7497 272.3754,-28.9542"/>
<polygon fill="#191970" stroke="#191970" points="273.5775,-25.6629 263.0026,-25.0124 270.8638,-32.1155 273.5775,-25.6629"/>
</g>
<!-- Node6 -->
<g id="node7" class="node">
<title>Node6</title>
<polygon fill="#ffffff" stroke="#bfbfbf" points="288,-6 288,-25 356,-25 356,-6 288,-6"/>
<text text-anchor="middle" x="322" y="-13" font-family="Helvetica,sans-Serif" font-size="10.00" fill="#000000">osmap.pb.h</text>
</g>
<!-- Node0&#45;&gt;Node6 -->
<g id="edge6" class="edge">
<title>Node0&#45;&gt;Node6</title>
<path fill="none" stroke="#191970" d="M1180.6939,-80.9664C996.9271,-76.6866 520.2447,-62.7795 365,-31 361.5526,-30.2943 358.0093,-29.368 354.5068,-28.3187"/>
<polygon fill="#191970" stroke="#191970" points="355.4507,-24.9443 344.8573,-25.1169 353.2462,-31.5882 355.4507,-24.9443"/>
</g>
<!-- Node7 -->
<g id="node8" class="node">
<title>Node7</title>
<polygon fill="#ffffff" stroke="#bfbfbf" points="374.5,-6 374.5,-25 415.5,-25 415.5,-6 374.5,-6"/>
<text text-anchor="middle" x="395" y="-13" font-family="Helvetica,sans-Serif" font-size="10.00" fill="#000000">string</text>
</g>
<!-- Node0&#45;&gt;Node7 -->
<g id="edge7" class="edge">
<title>Node0&#45;&gt;Node7</title>
<path fill="none" stroke="#191970" d="M1180.9037,-81.8106C1005.7724,-79.5405 566.256,-70.0128 425,-31 423.3295,-30.5386 421.6447,-29.9771 419.9712,-29.3447"/>
<polygon fill="#191970" stroke="#191970" points="421.2429,-26.0787 410.6887,-25.1519 418.3614,-32.4581 421.2429,-26.0787"/>
</g>
<!-- Node8 -->
<g id="node9" class="node">
<title>Node8</title>
<polygon fill="#ffffff" stroke="#bfbfbf" points="434,-.5 434,-30.5 544,-30.5 544,-.5 434,-.5"/>
<text text-anchor="start" x="442" y="-18.5" font-family="Helvetica,sans-Serif" font-size="10.00" fill="#000000">google/protobuf/stubs</text>
<text text-anchor="middle" x="489" y="-7.5" font-family="Helvetica,sans-Serif" font-size="10.00" fill="#000000">/common.h</text>
</g>
<!-- Node0&#45;&gt;Node8 -->
<g id="edge8" class="edge">
<title>Node0&#45;&gt;Node8</title>
<path fill="none" stroke="#191970" d="M1180.8912,-81.0758C1054.7192,-77.7534 787.9436,-66.9314 554.0982,-31.0021"/>
<polygon fill="#191970" stroke="#191970" points="554.4617,-27.5166 544.0426,-29.4383 553.3859,-34.4334 554.4617,-27.5166"/>
</g>
<!-- Node9 -->
<g id="node10" class="node">
<title>Node9</title>
<polygon fill="#ffffff" stroke="#bfbfbf" points="562,-.5 562,-30.5 656,-30.5 656,-.5 562,-.5"/>
<text text-anchor="start" x="570" y="-18.5" font-family="Helvetica,sans-Serif" font-size="10.00" fill="#000000">google/protobuf/io</text>
<text text-anchor="middle" x="609" y="-7.5" font-family="Helvetica,sans-Serif" font-size="10.00" fill="#000000">/coded_stream.h</text>
</g>
<!-- Node0&#45;&gt;Node9 -->
<g id="edge9" class="edge">
<title>Node0&#45;&gt;Node9</title>
<path fill="none" stroke="#191970" d="M1180.8918,-80.3985C1070.8976,-76.2904 856.3381,-64.601 666.1156,-30.9952"/>
<polygon fill="#191970" stroke="#191970" points="666.6766,-27.54 656.2161,-29.2223 665.4425,-34.4304 666.6766,-27.54"/>
</g>
<!-- Node10 -->
<g id="node11" class="node">
<title>Node10</title>
<polygon fill="#ffffff" stroke="#bfbfbf" points="674.5,-6 674.5,-25 793.5,-25 793.5,-6 674.5,-6"/>
<text text-anchor="middle" x="734" y="-13" font-family="Helvetica,sans-Serif" font-size="10.00" fill="#000000">google/protobuf/arena.h</text>
</g>
<!-- Node0&#45;&gt;Node10 -->
<g id="edge10" class="edge">
<title>Node0&#45;&gt;Node10</title>
<path fill="none" stroke="#191970" d="M1180.8444,-76.673C1091.1678,-68.9539 934.7473,-53.6204 802,-31 795.6551,-29.9188 789.0133,-28.6184 782.4715,-27.2363"/>
<polygon fill="#191970" stroke="#191970" points="782.8479,-23.7359 772.3308,-25.0171 781.3513,-30.5741 782.8479,-23.7359"/>
</g>
<!-- Node11 -->
<g id="node12" class="node">
<title>Node11</title>
<polygon fill="#ffffff" stroke="#bfbfbf" points="811.5,-6 811.5,-25 954.5,-25 954.5,-6 811.5,-6"/>
<text text-anchor="middle" x="883" y="-13" font-family="Helvetica,sans-Serif" font-size="10.00" fill="#000000">google/protobuf/arenastring.h</text>
</g>
<!-- Node0&#45;&gt;Node11 -->
<g id="edge11" class="edge">
<title>Node0&#45;&gt;Node11</title>
<path fill="none" stroke="#191970" d="M1180.99,-69.9167C1122.0996,-59.6856 1037.1566,-44.745 963,-31 956.1775,-29.7354 949.0326,-28.3865 941.9395,-27.0319"/>
<polygon fill="#191970" stroke="#191970" points="942.1083,-23.5004 931.6277,-25.0524 940.7885,-30.3749 942.1083,-23.5004"/>
</g>
<!-- Node12 -->
<g id="node13" class="node">
<title>Node12</title>
<polygon fill="#ffffff" stroke="#bfbfbf" points="972.5,-.5 972.5,-30.5 1101.5,-30.5 1101.5,-.5 972.5,-.5"/>
<text text-anchor="start" x="980.5" y="-18.5" font-family="Helvetica,sans-Serif" font-size="10.00" fill="#000000">google/protobuf/generated</text>
<text text-anchor="middle" x="1037" y="-7.5" font-family="Helvetica,sans-Serif" font-size="10.00" fill="#000000">_message_table_driven.h</text>
</g>
<!-- Node0&#45;&gt;Node12 -->
<g id="edge12" class="edge">
<title>Node0&#45;&gt;Node12</title>
<path fill="none" stroke="#191970" d="M1205.301,-67.4639C1172.8874,-57.456 1130.1187,-44.2509 1095.8071,-33.657"/>
<polygon fill="#191970" stroke="#191970" points="1096.4989,-30.2077 1085.9114,-30.6017 1094.4338,-36.8961 1096.4989,-30.2077"/>
</g>
<!-- Node13 -->
<g id="node14" class="node">
<title>Node13</title>
<polygon fill="#ffffff" stroke="#bfbfbf" points="1119.5,-.5 1119.5,-30.5 1248.5,-30.5 1248.5,-.5 1119.5,-.5"/>
<text text-anchor="start" x="1127.5" y="-18.5" font-family="Helvetica,sans-Serif" font-size="10.00" fill="#000000">google/protobuf/generated</text>
<text text-anchor="middle" x="1184" y="-7.5" font-family="Helvetica,sans-Serif" font-size="10.00" fill="#000000">_message_util.h</text>
</g>
<!-- Node0&#45;&gt;Node13 -->
<g id="edge13" class="edge">
<title>Node0&#45;&gt;Node13</title>
<path fill="none" stroke="#191970" d="M1238.1159,-67.2967C1228.987,-58.559 1217.3552,-47.4257 1207.2168,-37.7218"/>
<polygon fill="#191970" stroke="#191970" points="1209.4655,-35.0293 1199.8212,-30.6432 1204.6253,-40.0862 1209.4655,-35.0293"/>
</g>
<!-- Node14 -->
<g id="node15" class="node">
<title>Node14</title>
<polygon fill="#ffffff" stroke="#bfbfbf" points="1267,-.5 1267,-30.5 1381,-30.5 1381,-.5 1267,-.5"/>
<text text-anchor="start" x="1275" y="-18.5" font-family="Helvetica,sans-Serif" font-size="10.00" fill="#000000">google/protobuf/inlined</text>
<text text-anchor="middle" x="1324" y="-7.5" font-family="Helvetica,sans-Serif" font-size="10.00" fill="#000000">_string_field.h</text>
</g>
<!-- Node0&#45;&gt;Node14 -->
<g id="edge14" class="edge">
<title>Node0&#45;&gt;Node14</title>
<path fill="none" stroke="#191970" d="M1269.8841,-67.2967C1279.013,-58.559 1290.6448,-47.4257 1300.7832,-37.7218"/>
<polygon fill="#191970" stroke="#191970" points="1303.3747,-40.0862 1308.1788,-30.6432 1298.5345,-35.0293 1303.3747,-40.0862"/>
</g>
<!-- Node15 -->
<g id="node16" class="node">
<title>Node15</title>
<polygon fill="#ffffff" stroke="#bfbfbf" points="1399.5,-6 1399.5,-25 1534.5,-25 1534.5,-6 1399.5,-6"/>
<text text-anchor="middle" x="1467" y="-13" font-family="Helvetica,sans-Serif" font-size="10.00" fill="#000000">google/protobuf/metadata.h</text>
</g>
<!-- Node0&#45;&gt;Node15 -->
<g id="edge15" class="edge">
<title>Node0&#45;&gt;Node15</title>
<path fill="none" stroke="#191970" d="M1301.8014,-67.4639C1339.584,-55.5792 1391.7004,-39.1858 1427.227,-28.0108"/>
<polygon fill="#191970" stroke="#191970" points="1428.2927,-31.3447 1436.7817,-25.0053 1426.1923,-24.6672 1428.2927,-31.3447"/>
</g>
<!-- Node16 -->
<g id="node17" class="node">
<title>Node16</title>
<polygon fill="#ffffff" stroke="#bfbfbf" points="1553,-6 1553,-25 1687,-25 1687,-6 1553,-6"/>
<text text-anchor="middle" x="1620" y="-13" font-family="Helvetica,sans-Serif" font-size="10.00" fill="#000000">google/protobuf/message.h</text>
</g>
<!-- Node0&#45;&gt;Node16 -->
<g id="edge16" class="edge">
<title>Node0&#45;&gt;Node16</title>
<path fill="none" stroke="#191970" d="M1327.0939,-70.0491C1385.79,-59.9232 1470.2883,-45.0594 1544,-31 1550.5766,-29.7456 1557.4653,-28.3938 1564.2968,-27.0298"/>
<polygon fill="#191970" stroke="#191970" points="1565.109,-30.4366 1574.2219,-25.0324 1563.7279,-23.5742 1565.109,-30.4366"/>
</g>
<!-- Node17 -->
<g id="node18" class="node">
<title>Node17</title>
<polygon fill="#ffffff" stroke="#bfbfbf" points="1705,-.5 1705,-30.5 1829,-30.5 1829,-.5 1705,-.5"/>
<text text-anchor="start" x="1713" y="-18.5" font-family="Helvetica,sans-Serif" font-size="10.00" fill="#000000">google/protobuf/repeated</text>
<text text-anchor="middle" x="1767" y="-7.5" font-family="Helvetica,sans-Serif" font-size="10.00" fill="#000000">_field.h</text>
</g>
<!-- Node0&#45;&gt;Node17 -->
<g id="edge17" class="edge">
<title>Node0&#45;&gt;Node17</title>
<path fill="none" stroke="#191970" d="M1327.0491,-76.2216C1412.8028,-68.3496 1559.4624,-53.325 1694.6062,-31.1384"/>
<polygon fill="#191970" stroke="#191970" points="1695.4369,-34.5486 1704.7294,-29.4593 1694.2914,-27.6429 1695.4369,-34.5486"/>
</g>
<!-- Node18 -->
<g id="node19" class="node">
<title>Node18</title>
<polygon fill="#ffffff" stroke="#bfbfbf" points="1847,-.5 1847,-30.5 1975,-30.5 1975,-.5 1847,-.5"/>
<text text-anchor="start" x="1855" y="-18.5" font-family="Helvetica,sans-Serif" font-size="10.00" fill="#000000">google/protobuf/extension</text>
<text text-anchor="middle" x="1911" y="-7.5" font-family="Helvetica,sans-Serif" font-size="10.00" fill="#000000">_set.h</text>
</g>
<!-- Node0&#45;&gt;Node18 -->
<g id="edge18" class="edge">
<title>Node0&#45;&gt;Node18</title>
<path fill="none" stroke="#191970" d="M1327.1719,-78.9024C1436.1604,-72.912 1647.6979,-58.8544 1836.8545,-31.0562"/>
<polygon fill="#191970" stroke="#191970" points="1837.6088,-34.4826 1846.9858,-29.5508 1836.58,-27.5586 1837.6088,-34.4826"/>
</g>
<!-- Node19 -->
<g id="node20" class="node">
<title>Node19</title>
<polygon fill="#ffffff" stroke="#bfbfbf" points="1993.5,-.5 1993.5,-30.5 2118.5,-30.5 2118.5,-.5 1993.5,-.5"/>
<text text-anchor="start" x="2001.5" y="-18.5" font-family="Helvetica,sans-Serif" font-size="10.00" fill="#000000">google/protobuf/unknown</text>
<text text-anchor="middle" x="2056" y="-7.5" font-family="Helvetica,sans-Serif" font-size="10.00" fill="#000000">_field_set.h</text>
</g>
<!-- Node0&#45;&gt;Node19 -->
<g id="edge19" class="edge">
<title>Node0&#45;&gt;Node19</title>
<path fill="none" stroke="#191970" d="M1327.1492,-80.764C1457.2278,-76.9272 1737.3687,-65.2828 1983.0686,-30.9916"/>
<polygon fill="#191970" stroke="#191970" points="1983.8527,-34.4157 1993.2654,-29.5525 1982.8744,-27.4844 1983.8527,-34.4157"/>
</g>
<!-- Node20 -->
<g id="node21" class="node">
<title>Node20</title>
<polygon fill="#ffffff" stroke="#bfbfbf" points="2137,-6 2137,-25 2231,-25 2231,-6 2137,-6"/>
<text text-anchor="middle" x="2184" y="-13" font-family="Helvetica,sans-Serif" font-size="10.00" fill="#000000">opencv2/core.hpp</text>
</g>
<!-- Node0&#45;&gt;Node20 -->
<g id="edge20" class="edge">
<title>Node0&#45;&gt;Node20</title>
<path fill="none" stroke="#191970" d="M1327.2664,-80.1749C1508.5891,-74.1001 1974.6773,-56.4423 2128,-31 2133.2153,-30.1346 2138.6421,-28.9739 2143.9753,-27.6752"/>
<polygon fill="#191970" stroke="#191970" points="2145.244,-30.9613 2154.0356,-25.0487 2143.4758,-24.1883 2145.244,-30.9613"/>
</g>
<!-- Node21 -->
<g id="node22" class="node">
<title>Node21</title>
<polygon fill="#ffffff" stroke="#bfbfbf" points="2249,-6 2249,-25 2319,-25 2319,-6 2249,-6"/>
<text text-anchor="middle" x="2284" y="-13" font-family="Helvetica,sans-Serif" font-size="10.00" fill="#000000">KeyFrame.h</text>
</g>
<!-- Node0&#45;&gt;Node21 -->
<g id="edge21" class="edge">
<title>Node0&#45;&gt;Node21</title>
<path fill="none" stroke="#191970" d="M1327.2608,-81.3863C1524.8087,-77.9508 2065.3336,-65.5784 2240,-31 2243.6298,-30.2814 2247.3654,-29.3256 2251.0535,-28.2402"/>
<polygon fill="#191970" stroke="#191970" points="2252.1708,-31.5574 2260.5995,-25.1381 2250.0073,-24.9001 2252.1708,-31.5574"/>
</g>
<!-- Node22 -->
<g id="node23" class="node">
<title>Node22</title>
<polygon fill="#ffffff" stroke="#bfbfbf" points="2337,-6 2337,-25 2381,-25 2381,-6 2337,-6"/>
<text text-anchor="middle" x="2359" y="-13" font-family="Helvetica,sans-Serif" font-size="10.00" fill="#000000">Map.h</text>
</g>
<!-- Node0&#45;&gt;Node22 -->
<g id="edge22" class="edge">
<title>Node0&#45;&gt;Node22</title>
<path fill="none" stroke="#191970" d="M1327.381,-80.7378C1553.7833,-75.0563 2231.9437,-56.1196 2328,-31 2329.9211,-30.4976 2331.862,-29.8672 2333.7857,-29.1501"/>
<polygon fill="#191970" stroke="#191970" points="2335.3608,-32.2805 2343.0896,-25.0337 2332.5285,-25.8791 2335.3608,-32.2805"/>
</g>
<!-- Node23 -->
<g id="node24" class="node">
<title>Node23</title>
<polygon fill="#ffffff" stroke="#bfbfbf" points="2399,-6 2399,-25 2465,-25 2465,-6 2399,-6"/>
<text text-anchor="middle" x="2432" y="-13" font-family="Helvetica,sans-Serif" font-size="10.00" fill="#000000">MapPoint.h</text>
</g>
<!-- Node0&#45;&gt;Node23 -->
<g id="edge23" class="edge">
<title>Node0&#45;&gt;Node23</title>
<path fill="none" stroke="#191970" d="M1327.2643,-82.1161C1544.9847,-80.5113 2185.6029,-72.3105 2390,-31 2393.4568,-30.3013 2397.0077,-29.3634 2400.5107,-28.293"/>
<polygon fill="#191970" stroke="#191970" points="2401.8007,-31.5511 2410.1384,-25.014 2399.5439,-24.9249 2401.8007,-31.5511"/>
</g>
<!-- Node24 -->
<g id="node25" class="node">
<title>Node24</title>
<polygon fill="#ffffff" stroke="#bfbfbf" points="2483.5,-6 2483.5,-25 2542.5,-25 2542.5,-6 2483.5,-6"/>
<text text-anchor="middle" x="2513" y="-13" font-family="Helvetica,sans-Serif" font-size="10.00" fill="#000000">System.h</text>
</g>
<!-- Node0&#45;&gt;Node24 -->
<g id="edge24" class="edge">
<title>Node0&#45;&gt;Node24</title>
<path fill="none" stroke="#191970" d="M1327.1268,-80.8407C1573.225,-75.0592 2362.2382,-54.8493 2474,-31 2477.0373,-30.3519 2480.1443,-29.4898 2483.2137,-28.5031"/>
<polygon fill="#191970" stroke="#191970" points="2484.5544,-31.74 2492.7583,-25.0358 2482.1642,-25.1607 2484.5544,-31.74"/>
</g>
<!-- Node25 -->
<g id="node26" class="node">
<title>Node25</title>
<polygon fill="#ffffff" stroke="#bfbfbf" points="2560.5,-6 2560.5,-25 2613.5,-25 2613.5,-6 2560.5,-6"/>
<text text-anchor="middle" x="2587" y="-13" font-family="Helvetica,sans-Serif" font-size="10.00" fill="#000000">Frame.h</text>
</g>
<!-- Node0&#45;&gt;Node25 -->
<g id="edge25" class="edge">
<title>Node0&#45;&gt;Node25</title>
<path fill="none" stroke="#191970" d="M1327.3414,-81.1979C1584.0278,-76.4193 2432.8955,-58.6711 2552,-31 2554.4922,-30.421 2557.0264,-29.6656 2559.5335,-28.7999"/>
<polygon fill="#191970" stroke="#191970" points="2560.9318,-32.0104 2568.9236,-25.0547 2558.3385,-25.5085 2560.9318,-32.0104"/>
</g>
<!-- Node26 -->
<g id="node27" class="node">
<title>Node26</title>
<polygon fill="#ffffff" stroke="#bfbfbf" points="2632,-6 2632,-25 2694,-25 2694,-6 2632,-6"/>
<text text-anchor="middle" x="2663" y="-13" font-family="Helvetica,sans-Serif" font-size="10.00" fill="#000000">Tracking.h</text>
</g>
<!-- Node0&#45;&gt;Node26 -->
<g id="edge26" class="edge">
<title>Node0&#45;&gt;Node26</title>
<path fill="none" stroke="#191970" d="M1327.1462,-81.1655C1592.5709,-76.1282 2496.0548,-57.2148 2623,-31 2626.2092,-30.3373 2629.4969,-29.4445 2632.7413,-28.4203"/>
<polygon fill="#191970" stroke="#191970" points="2633.9713,-31.6977 2642.2228,-25.0521 2631.628,-25.1015 2633.9713,-31.6977"/>
</g>
</g>
</svg>
