<?xml version="1.0" encoding="UTF-8" standalone="no"?>
<!DOCTYPE svg PUBLIC "-//W3C//DTD SVG 1.1//EN"
 "http://www.w3.org/Graphics/SVG/1.1/DTD/svg11.dtd">
<!-- Generated by graphviz version 2.40.1 (20161225.0304)
 -->
<!-- Title: SerializedKeyframe Pages: 1 -->
<svg width="192pt" height="152pt"
 viewBox="0.00 0.00 191.50 152.00" xmlns="http://www.w3.org/2000/svg" xmlns:xlink="http://www.w3.org/1999/xlink">
<g id="graph0" class="graph" transform="scale(1 1) rotate(0) translate(4 148)">
<title>SerializedKeyframe</title>
<polygon fill="#ffffff" stroke="transparent" points="-4,4 -4,-148 187.5,-148 187.5,4 -4,4"/>
<!-- Node2 -->
<g id="node1" class="node">
<title>Node2</title>
<polygon fill="#bfbfbf" stroke="#000000" points="0,-.5 0,-19.5 101,-19.5 101,-.5 0,-.5"/>
<text text-anchor="middle" x="50.5" y="-7.5" font-family="Helvetica,sans-Serif" font-size="10.00" fill="#000000">SerializedKeyframe</text>
</g>
<!-- Node3 -->
<g id="node2" class="node">
<title>Node3</title>
<polygon fill="#ffffff" stroke="#bfbfbf" points="22.5,-124.5 22.5,-143.5 78.5,-143.5 78.5,-124.5 22.5,-124.5"/>
<text text-anchor="middle" x="50.5" y="-131.5" font-family="Helvetica,sans-Serif" font-size="10.00" fill="#000000">Message</text>
</g>
<!-- Node3&#45;&gt;Node2 -->
<g id="edge1" class="edge">
<title>Node3&#45;&gt;Node2</title>
<path fill="none" stroke="#191970" d="M30.3615,-117.5987C21.8948,-109.4066 12.9817,-98.7411 8.5,-87 5.3301,-78.6955 5.7248,-75.4446 8.5,-67 14.717,-48.0822 29.8846,-30.2815 40.1851,-19.7597"/>
<polygon fill="#191970" stroke="#191970" points="28.1058,-120.2777 37.8715,-124.3865 32.7996,-115.0846 28.1058,-120.2777"/>
</g>
<!-- Node4 -->
<g id="node3" class="node">
<title>Node4</title>
<g id="a_node3"><a xlink:href="class_serialized_k.html" target="_top" xlink:title="SerializedK">
<polygon fill="#ffffff" stroke="#000000" points="17.5,-67.5 17.5,-86.5 83.5,-86.5 83.5,-67.5 17.5,-67.5"/>
<text text-anchor="middle" x="50.5" y="-74.5" font-family="Helvetica,sans-Serif" font-size="10.00" fill="#000000">SerializedK</text>
</a>
</g>
</g>
<!-- Node3&#45;&gt;Node4 -->
<g id="edge3" class="edge">
<title>Node3&#45;&gt;Node4</title>
<path fill="none" stroke="#191970" d="M50.5,-114.2342C50.5,-104.8491 50.5,-94.0651 50.5,-86.5265"/>
<polygon fill="#191970" stroke="#191970" points="47.0001,-114.3307 50.5,-124.3307 54.0001,-114.3308 47.0001,-114.3307"/>
</g>
<!-- Node5 -->
<g id="node4" class="node">
<title>Node5</title>
<g id="a_node4"><a xlink:href="class_serialized_pose.html" target="_top" xlink:title="SerializedPose">
<polygon fill="#ffffff" stroke="#000000" points="101.5,-67.5 101.5,-86.5 183.5,-86.5 183.5,-67.5 101.5,-67.5"/>
<text text-anchor="middle" x="142.5" y="-74.5" font-family="Helvetica,sans-Serif" font-size="10.00" fill="#000000">SerializedPose</text>
</a>
</g>
</g>
<!-- Node3&#45;&gt;Node5 -->
<g id="edge5" class="edge">
<title>Node3&#45;&gt;Node5</title>
<path fill="none" stroke="#191970" d="M74.7437,-118.9794C91.3381,-108.6982 112.8402,-95.3762 127.1239,-86.5265"/>
<polygon fill="#191970" stroke="#191970" points="72.7639,-116.0887 66.1065,-124.3307 76.4506,-122.0392 72.7639,-116.0887"/>
</g>
<!-- Node4&#45;&gt;Node2 -->
<g id="edge2" class="edge">
<title>Node4&#45;&gt;Node2</title>
<path fill="none" stroke="#9a32cd" stroke-dasharray="5,2" d="M50.5,-57.1079C50.5,-44.714 50.5,-29.3263 50.5,-19.5817"/>
<polygon fill="#9a32cd" stroke="#9a32cd" points="47.0001,-57.4005 50.5,-67.4005 54.0001,-57.4006 47.0001,-57.4005"/>
<text text-anchor="middle" x="71" y="-41" font-family="Helvetica,sans-Serif" font-size="10.00" fill="#000000"> kmatrix_</text>
</g>
<!-- Node5&#45;&gt;Node2 -->
<g id="edge4" class="edge">
<title>Node5&#45;&gt;Node2</title>
<path fill="none" stroke="#9a32cd" stroke-dasharray="5,2" d="M123.8735,-60.5508C115.4245,-53.352 105.1762,-44.9756 95.5,-38 86.3939,-31.4353 75.747,-24.7685 67.096,-19.5878"/>
<polygon fill="#9a32cd" stroke="#9a32cd" points="121.7811,-63.3686 131.6348,-67.2617 126.3595,-58.0735 121.7811,-63.3686"/>
<text text-anchor="middle" x="123.5" y="-41" font-family="Helvetica,sans-Serif" font-size="10.00" fill="#000000"> pose_</text>
</g>
</g>
</svg>
