<?xml version="1.0" encoding="UTF-8" standalone="no"?>
<!DOCTYPE svg PUBLIC "-//W3C//DTD SVG 1.1//EN"
 "http://www.w3.org/Graphics/SVG/1.1/DTD/svg11.dtd">
<!-- Generated by graphviz version 2.40.1 (20161225.0304)
 -->
<!-- Title: ORB_SLAM2::System Pages: 1 -->
<svg width="429pt" height="95pt"
 viewBox="0.00 0.00 429.00 95.00" xmlns="http://www.w3.org/2000/svg" xmlns:xlink="http://www.w3.org/1999/xlink">
<g id="graph0" class="graph" transform="scale(1 1) rotate(0) translate(4 91)">
<title>ORB_SLAM2::System</title>
<polygon fill="#ffffff" stroke="transparent" points="-4,4 -4,-91 425,-91 425,4 -4,4"/>
<!-- Node1 -->
<g id="node1" class="node">
<title>Node1</title>
<polygon fill="#bfbfbf" stroke="#000000" points="179.5,-.5 179.5,-19.5 295.5,-19.5 295.5,-.5 179.5,-.5"/>
<text text-anchor="middle" x="237.5" y="-7.5" font-family="Helvetica,sans-Serif" font-size="10.00" fill="#000000">ORB_SLAM2::System</text>
</g>
<!-- Node2 -->
<g id="node2" class="node">
<title>Node2</title>
<g id="a_node2"><a xlink:href="class_o_r_b___s_l_a_m2_1_1_key_frame_database.html" target="_top" xlink:title="ORB_SLAM2::KeyFrameDatabase">
<polygon fill="#ffffff" stroke="#000000" points="0,-67.5 0,-86.5 169,-86.5 169,-67.5 0,-67.5"/>
<text text-anchor="middle" x="84.5" y="-74.5" font-family="Helvetica,sans-Serif" font-size="10.00" fill="#000000">ORB_SLAM2::KeyFrameDatabase</text>
</a>
</g>
</g>
<!-- Node2&#45;&gt;Node1 -->
<g id="edge1" class="edge">
<title>Node2&#45;&gt;Node1</title>
<path fill="none" stroke="#9a32cd" stroke-dasharray="5,2" d="M100.4234,-59.9694C108.4733,-52.257 118.7929,-43.6272 129.5,-38 145.2745,-29.7096 163.6593,-23.7618 180.741,-19.5434"/>
<polygon fill="#9a32cd" stroke="#9a32cd" points="97.771,-57.673 93.1999,-67.2309 102.7338,-62.6097 97.771,-57.673"/>
<text text-anchor="middle" x="181.5" y="-41" font-family="Helvetica,sans-Serif" font-size="10.00" fill="#000000"> mpKeyFrameDatabase</text>
</g>
<!-- Node3 -->
<g id="node3" class="node">
<title>Node3</title>
<g id="a_node3"><a xlink:href="class_o_r_b___s_l_a_m2_1_1_map.html" target="_top" xlink:title="ORB_SLAM2::Map">
<polygon fill="#ffffff" stroke="#000000" points="187,-67.5 187,-86.5 288,-86.5 288,-67.5 187,-67.5"/>
<text text-anchor="middle" x="237.5" y="-74.5" font-family="Helvetica,sans-Serif" font-size="10.00" fill="#000000">ORB_SLAM2::Map</text>
</a>
</g>
</g>
<!-- Node3&#45;&gt;Node1 -->
<g id="edge2" class="edge">
<title>Node3&#45;&gt;Node1</title>
<path fill="none" stroke="#9a32cd" stroke-dasharray="5,2" d="M237.5,-57.1079C237.5,-44.714 237.5,-29.3263 237.5,-19.5817"/>
<polygon fill="#9a32cd" stroke="#9a32cd" points="234.0001,-57.4005 237.5,-67.4005 241.0001,-57.4006 234.0001,-57.4005"/>
<text text-anchor="middle" x="255.5" y="-41" font-family="Helvetica,sans-Serif" font-size="10.00" fill="#000000"> mpMap</text>
</g>
<!-- Node4 -->
<g id="node4" class="node">
<title>Node4</title>
<g id="a_node4"><a xlink:href="class_o_r_b___s_l_a_m2_1_1_tracker.html" target="_top" xlink:title="ORB_SLAM2::Tracker">
<polygon fill="#ffffff" stroke="#000000" points="306,-67.5 306,-86.5 421,-86.5 421,-67.5 306,-67.5"/>
<text text-anchor="middle" x="363.5" y="-74.5" font-family="Helvetica,sans-Serif" font-size="10.00" fill="#000000">ORB_SLAM2::Tracker</text>
</a>
</g>
</g>
<!-- Node4&#45;&gt;Node1 -->
<g id="edge3" class="edge">
<title>Node4&#45;&gt;Node1</title>
<path fill="none" stroke="#9a32cd" stroke-dasharray="5,2" d="M336.3395,-62.5575C311.8902,-49.5567 276.65,-30.8179 255.5192,-19.5817"/>
<polygon fill="#9a32cd" stroke="#9a32cd" points="334.9747,-65.7958 345.4473,-67.4005 338.2612,-59.6152 334.9747,-65.7958"/>
<text text-anchor="middle" x="332.5" y="-41" font-family="Helvetica,sans-Serif" font-size="10.00" fill="#000000"> mpTracker</text>
</g>
</g>
</svg>
