<?xml version="1.0" encoding="UTF-8" standalone="no"?>
<!DOCTYPE svg PUBLIC "-//W3C//DTD SVG 1.1//EN"
 "http://www.w3.org/Graphics/SVG/1.1/DTD/svg11.dtd">
<!-- Generated by graphviz version 2.40.1 (20161225.0304)
 -->
<!-- Title: ORB_SLAM2::Osmap Pages: 1 -->
<svg width="429pt" height="162pt"
 viewBox="0.00 0.00 429.00 162.00" xmlns="http://www.w3.org/2000/svg" xmlns:xlink="http://www.w3.org/1999/xlink">
<g id="graph0" class="graph" transform="scale(1 1) rotate(0) translate(4 158)">
<title>ORB_SLAM2::Osmap</title>
<polygon fill="#ffffff" stroke="transparent" points="-4,4 -4,-158 425,-158 425,4 -4,4"/>
<!-- Node1 -->
<g id="node1" class="node">
<title>Node1</title>
<polygon fill="#bfbfbf" stroke="#000000" points="193,-.5 193,-19.5 306,-19.5 306,-.5 193,-.5"/>
<text text-anchor="middle" x="249.5" y="-7.5" font-family="Helvetica,sans-Serif" font-size="10.00" fill="#000000">ORB_SLAM2::Osmap</text>
</g>
<!-- Node2 -->
<g id="node2" class="node">
<title>Node2</title>
<g id="a_node2"><a xlink:href="class_o_r_b___s_l_a_m2_1_1_key_frame_database.html" target="_top" xlink:title="ORB_SLAM2::KeyFrameDatabase">
<polygon fill="#ffffff" stroke="#000000" points="0,-134.5 0,-153.5 169,-153.5 169,-134.5 0,-134.5"/>
<text text-anchor="middle" x="84.5" y="-141.5" font-family="Helvetica,sans-Serif" font-size="10.00" fill="#000000">ORB_SLAM2::KeyFrameDatabase</text>
</a>
</g>
</g>
<!-- Node2&#45;&gt;Node1 -->
<g id="edge1" class="edge">
<title>Node2&#45;&gt;Node1</title>
<path fill="none" stroke="#9a32cd" stroke-dasharray="5,2" d="M81.4884,-124.3437C80.0199,-107.3742 80.7732,-83.1164 93.5,-67 108.1982,-48.3873 168.4203,-30.1591 209.5921,-19.5066"/>
<polygon fill="#9a32cd" stroke="#9a32cd" points="78.014,-124.7673 82.6707,-134.2838 84.965,-123.9404 78.014,-124.7673"/>
<text text-anchor="middle" x="138" y="-74.5" font-family="Helvetica,sans-Serif" font-size="10.00" fill="#000000"> keyFrameDatabase</text>
</g>
<!-- Node4 -->
<g id="node4" class="node">
<title>Node4</title>
<g id="a_node4"><a xlink:href="class_o_r_b___s_l_a_m2_1_1_system.html" target="_top" xlink:title="ORB_SLAM2::System">
<polygon fill="#ffffff" stroke="#000000" points="191.5,-67.5 191.5,-86.5 307.5,-86.5 307.5,-67.5 191.5,-67.5"/>
<text text-anchor="middle" x="249.5" y="-74.5" font-family="Helvetica,sans-Serif" font-size="10.00" fill="#000000">ORB_SLAM2::System</text>
</a>
</g>
</g>
<!-- Node2&#45;&gt;Node4 -->
<g id="edge4" class="edge">
<title>Node2&#45;&gt;Node4</title>
<path fill="none" stroke="#9a32cd" stroke-dasharray="5,2" d="M102.8192,-127.7434C112.5383,-119.867 125.0271,-110.8671 137.5,-105 154.9111,-96.81 175.0139,-90.825 193.3411,-86.543"/>
<polygon fill="#9a32cd" stroke="#9a32cd" points="100.4611,-125.1534 95.0612,-134.2689 104.967,-130.5103 100.4611,-125.1534"/>
<text text-anchor="middle" x="189.5" y="-108" font-family="Helvetica,sans-Serif" font-size="10.00" fill="#000000"> mpKeyFrameDatabase</text>
</g>
<!-- Node3 -->
<g id="node3" class="node">
<title>Node3</title>
<g id="a_node3"><a xlink:href="class_o_r_b___s_l_a_m2_1_1_map.html" target="_top" xlink:title="ORB_SLAM2::Map">
<polygon fill="#ffffff" stroke="#000000" points="320,-134.5 320,-153.5 421,-153.5 421,-134.5 320,-134.5"/>
<text text-anchor="middle" x="370.5" y="-141.5" font-family="Helvetica,sans-Serif" font-size="10.00" fill="#000000">ORB_SLAM2::Map</text>
</a>
</g>
</g>
<!-- Node3&#45;&gt;Node1 -->
<g id="edge2" class="edge">
<title>Node3&#45;&gt;Node1</title>
<path fill="none" stroke="#9a32cd" stroke-dasharray="5,2" d="M364.6743,-124.2183C362.3315,-117.815 359.2766,-110.8594 355.5,-105 331.134,-67.1962 287.8376,-35.1286 264.8428,-19.7483"/>
<polygon fill="#9a32cd" stroke="#9a32cd" points="361.5011,-125.7736 367.9467,-134.1822 368.1516,-123.5893 361.5011,-125.7736"/>
<text text-anchor="middle" x="351.5" y="-74.5" font-family="Helvetica,sans-Serif" font-size="10.00" fill="#000000"> map</text>
</g>
<!-- Node3&#45;&gt;Node4 -->
<g id="edge5" class="edge">
<title>Node3&#45;&gt;Node4</title>
<path fill="none" stroke="#9a32cd" stroke-dasharray="5,2" d="M344.1607,-129.5799C336.2285,-125.2262 327.5048,-120.4273 319.5,-116 301.4828,-106.0352 280.902,-94.5573 266.7436,-86.6463"/>
<polygon fill="#9a32cd" stroke="#9a32cd" points="342.5672,-132.6977 353.0183,-134.4371 345.933,-126.56 342.5672,-132.6977"/>
<text text-anchor="middle" x="337.5" y="-108" font-family="Helvetica,sans-Serif" font-size="10.00" fill="#000000"> mpMap</text>
</g>
<!-- Node4&#45;&gt;Node1 -->
<g id="edge3" class="edge">
<title>Node4&#45;&gt;Node1</title>
<path fill="none" stroke="#9a32cd" stroke-dasharray="5,2" d="M249.5,-57.1079C249.5,-44.714 249.5,-29.3263 249.5,-19.5817"/>
<polygon fill="#9a32cd" stroke="#9a32cd" points="246.0001,-57.4005 249.5,-67.4005 253.0001,-57.4006 246.0001,-57.4005"/>
<text text-anchor="middle" x="267.5" y="-41" font-family="Helvetica,sans-Serif" font-size="10.00" fill="#000000"> system</text>
</g>
<!-- Node5 -->
<g id="node5" class="node">
<title>Node5</title>
<g id="a_node5"><a xlink:href="class_o_r_b___s_l_a_m2_1_1_tracker.html" target="_top" xlink:title="ORB_SLAM2::Tracker">
<polygon fill="#ffffff" stroke="#000000" points="187,-134.5 187,-153.5 302,-153.5 302,-134.5 187,-134.5"/>
<text text-anchor="middle" x="244.5" y="-141.5" font-family="Helvetica,sans-Serif" font-size="10.00" fill="#000000">ORB_SLAM2::Tracker</text>
</a>
</g>
</g>
<!-- Node5&#45;&gt;Node4 -->
<g id="edge6" class="edge">
<title>Node5&#45;&gt;Node4</title>
<path fill="none" stroke="#9a32cd" stroke-dasharray="5,2" d="M245.2998,-124.2459C245.6068,-118.0773 246.0052,-111.2517 246.5,-105 246.9861,-98.8591 247.7204,-91.9802 248.3409,-86.5774"/>
<polygon fill="#9a32cd" stroke="#9a32cd" points="241.7972,-124.2269 244.8448,-134.3739 248.7902,-124.5411 241.7972,-124.2269"/>
<text text-anchor="middle" x="271.5" y="-108" font-family="Helvetica,sans-Serif" font-size="10.00" fill="#000000"> mpTracker</text>
</g>
</g>
</svg>
