<?xml version="1.0" encoding="UTF-8" standalone="no"?>
<!DOCTYPE svg PUBLIC "-//W3C//DTD SVG 1.1//EN"
 "http://www.w3.org/Graphics/SVG/1.1/DTD/svg11.dtd">
<!-- Generated by graphviz version 2.40.1 (20161225.0304)
 -->
<!-- Title: ORB_SLAM2::MapPoint Pages: 1 -->
<svg width="199pt" height="95pt"
 viewBox="0.00 0.00 199.00 95.00" xmlns="http://www.w3.org/2000/svg" xmlns:xlink="http://www.w3.org/1999/xlink">
<g id="graph0" class="graph" transform="scale(1 1) rotate(0) translate(4 91)">
<title>ORB_SLAM2::MapPoint</title>
<polygon fill="#ffffff" stroke="transparent" points="-4,4 -4,-91 195,-91 195,4 -4,4"/>
<!-- Node1 -->
<g id="node1" class="node">
<title>Node1</title>
<polygon fill="#bfbfbf" stroke="#000000" points="2,-.5 2,-19.5 125,-19.5 125,-.5 2,-.5"/>
<text text-anchor="middle" x="63.5" y="-7.5" font-family="Helvetica,sans-Serif" font-size="10.00" fill="#000000">ORB_SLAM2::MapPoint</text>
</g>
<!-- Node2 -->
<g id="node2" class="node">
<title>Node2</title>
<g id="a_node2"><a xlink:href="class_o_r_b___s_l_a_m2_1_1_key_frame.html" target="_top" xlink:title="ORB_SLAM2::KeyFrame">
<polygon fill="#ffffff" stroke="#000000" points="0,-67.5 0,-86.5 127,-86.5 127,-67.5 0,-67.5"/>
<text text-anchor="middle" x="63.5" y="-74.5" font-family="Helvetica,sans-Serif" font-size="10.00" fill="#000000">ORB_SLAM2::KeyFrame</text>
</a>
</g>
</g>
<!-- Node2&#45;&gt;Node1 -->
<g id="edge1" class="edge">
<title>Node2&#45;&gt;Node1</title>
<path fill="none" stroke="#9a32cd" stroke-dasharray="5,2" d="M63.5,-57.1079C63.5,-44.714 63.5,-29.3263 63.5,-19.5817"/>
<polygon fill="#9a32cd" stroke="#9a32cd" points="60.0001,-57.4005 63.5,-67.4005 67.0001,-57.4006 60.0001,-57.4005"/>
<text text-anchor="middle" x="86.5" y="-41" font-family="Helvetica,sans-Serif" font-size="10.00" fill="#000000"> mpRefKF</text>
</g>
<!-- Node2&#45;&gt;Node2 -->
<g id="edge2" class="edge">
<title>Node2&#45;&gt;Node2</title>
<path fill="none" stroke="#9a32cd" stroke-dasharray="5,2" d="M137.0415,-81.3175C141.9936,-80.321 145,-78.8818 145,-77 145,-74.0625 137.6744,-72.2036 127.058,-71.4233"/>
<polygon fill="#9a32cd" stroke="#9a32cd" points="136.5415,-77.8528 127.058,-82.5767 137.4174,-84.7978 136.5415,-77.8528"/>
<text text-anchor="middle" x="168" y="-74.5" font-family="Helvetica,sans-Serif" font-size="10.00" fill="#000000"> mpParent</text>
</g>
</g>
</svg>
