<?xml version="1.0" encoding="UTF-8" standalone="no"?>
<!DOCTYPE svg PUBLIC "-//W3C//DTD SVG 1.1//EN"
 "http://www.w3.org/Graphics/SVG/1.1/DTD/svg11.dtd">
<!-- Generated by graphviz version 2.40.1 (20161225.0304)
 -->
<!-- Title: /home/alejandro/Development/osmap/include/dummymap.h Pages: 1 -->
<svg width="211pt" height="95pt"
 viewBox="0.00 0.00 211.00 95.00" xmlns="http://www.w3.org/2000/svg" xmlns:xlink="http://www.w3.org/1999/xlink">
<g id="graph0" class="graph" transform="scale(1 1) rotate(0) translate(4 91)">
<title>/home/alejandro/Development/osmap/include/dummymap.h</title>
<polygon fill="#ffffff" stroke="transparent" points="-4,4 -4,-91 207,-91 207,4 -4,4"/>
<!-- Node0 -->
<g id="node1" class="node">
<title>Node0</title>
<polygon fill="#bfbfbf" stroke="#000000" points="0,-56.5 0,-86.5 146,-86.5 146,-56.5 0,-56.5"/>
<text text-anchor="start" x="8" y="-74.5" font-family="Helvetica,sans-Serif" font-size="10.00" fill="#000000">/home/alejandro/Development</text>
<text text-anchor="middle" x="73" y="-63.5" font-family="Helvetica,sans-Serif" font-size="10.00" fill="#000000">/osmap/include/dummymap.h</text>
</g>
<!-- Node1 -->
<g id="node2" class="node">
<title>Node1</title>
<polygon fill="#ffffff" stroke="#bfbfbf" points="7,-.5 7,-19.5 37,-19.5 37,-.5 7,-.5"/>
<text text-anchor="middle" x="22" y="-7.5" font-family="Helvetica,sans-Serif" font-size="10.00" fill="#000000">set</text>
</g>
<!-- Node0&#45;&gt;Node1 -->
<g id="edge1" class="edge">
<title>Node0&#45;&gt;Node1</title>
<path fill="none" stroke="#191970" d="M60.3933,-56.2977C53.2402,-47.672 44.2503,-36.8312 36.7682,-27.8087"/>
<polygon fill="#191970" stroke="#191970" points="39.2433,-25.3103 30.1657,-19.8469 33.855,-29.7787 39.2433,-25.3103"/>
</g>
<!-- Node2 -->
<g id="node3" class="node">
<title>Node2</title>
<polygon fill="#ffffff" stroke="#bfbfbf" points="55.5,-.5 55.5,-19.5 90.5,-19.5 90.5,-.5 55.5,-.5"/>
<text text-anchor="middle" x="73" y="-7.5" font-family="Helvetica,sans-Serif" font-size="10.00" fill="#000000">map</text>
</g>
<!-- Node0&#45;&gt;Node2 -->
<g id="edge2" class="edge">
<title>Node0&#45;&gt;Node2</title>
<path fill="none" stroke="#191970" d="M73,-56.2977C73,-48.3834 73,-38.6043 73,-30.0759"/>
<polygon fill="#191970" stroke="#191970" points="76.5001,-29.8469 73,-19.8469 69.5001,-29.847 76.5001,-29.8469"/>
</g>
<!-- Node3 -->
<g id="node4" class="node">
<title>Node3</title>
<polygon fill="#ffffff" stroke="#bfbfbf" points="109,-.5 109,-19.5 203,-19.5 203,-.5 109,-.5"/>
<text text-anchor="middle" x="156" y="-7.5" font-family="Helvetica,sans-Serif" font-size="10.00" fill="#000000">opencv2/core.hpp</text>
</g>
<!-- Node0&#45;&gt;Node3 -->
<g id="edge3" class="edge">
<title>Node0&#45;&gt;Node3</title>
<path fill="none" stroke="#191970" d="M93.5169,-56.2977C105.9982,-47.0495 121.9159,-35.2551 134.5614,-25.8853"/>
<polygon fill="#191970" stroke="#191970" points="136.7596,-28.6126 142.7106,-19.8469 132.5922,-22.9882 136.7596,-28.6126"/>
</g>
</g>
</svg>
