<?xml version="1.0" encoding="UTF-8" standalone="no"?>
<!DOCTYPE svg PUBLIC "-//W3C//DTD SVG 1.1//EN"
 "http://www.w3.org/Graphics/SVG/1.1/DTD/svg11.dtd">
<!-- Generated by graphviz version 2.40.1 (20161225.0304)
 -->
<!-- Title: /home/alejandro/Development/osmap/include/osmap.h Pages: 1 -->
<svg width="2333pt" height="106pt"
 viewBox="0.00 0.00 2333.00 106.00" xmlns="http://www.w3.org/2000/svg" xmlns:xlink="http://www.w3.org/1999/xlink">
<g id="graph0" class="graph" transform="scale(1 1) rotate(0) translate(4 102)">
<title>/home/alejandro/Development/osmap/include/osmap.h</title>
<polygon fill="#ffffff" stroke="transparent" points="-4,4 -4,-102 2329,-102 2329,4 -4,4"/>
<!-- Node0 -->
<g id="node1" class="node">
<title>Node0</title>
<polygon fill="#bfbfbf" stroke="#000000" points="810,-67.5 810,-97.5 956,-97.5 956,-67.5 810,-67.5"/>
<text text-anchor="start" x="818" y="-85.5" font-family="Helvetica,sans-Serif" font-size="10.00" fill="#000000">/home/alejandro/Development</text>
<text text-anchor="middle" x="883" y="-74.5" font-family="Helvetica,sans-Serif" font-size="10.00" fill="#000000">/osmap/include/osmap.h</text>
</g>
<!-- Node1 -->
<g id="node2" class="node">
<title>Node1</title>
<polygon fill="#ffffff" stroke="#bfbfbf" points="0,-6 0,-25 30,-25 30,-6 0,-6"/>
<text text-anchor="middle" x="15" y="-13" font-family="Helvetica,sans-Serif" font-size="10.00" fill="#000000">set</text>
</g>
<!-- Node0&#45;&gt;Node1 -->
<g id="edge1" class="edge">
<title>Node0&#45;&gt;Node1</title>
<path fill="none" stroke="#191970" d="M809.6596,-80.1546C617.846,-73.7196 111.1359,-54.6805 39,-31 37.9632,-30.6596 36.9274,-30.2633 35.9,-29.8232"/>
<polygon fill="#191970" stroke="#191970" points="37.5375,-26.7295 27.0838,-25.0056 34.1808,-32.8722 37.5375,-26.7295"/>
</g>
<!-- Node2 -->
<g id="node3" class="node">
<title>Node2</title>
<polygon fill="#ffffff" stroke="#bfbfbf" points="48,-6 48,-25 92,-25 92,-6 48,-6"/>
<text text-anchor="middle" x="70" y="-13" font-family="Helvetica,sans-Serif" font-size="10.00" fill="#000000">vector</text>
</g>
<!-- Node0&#45;&gt;Node2 -->
<g id="edge2" class="edge">
<title>Node0&#45;&gt;Node2</title>
<path fill="none" stroke="#191970" d="M809.7532,-81.3677C641.8137,-78.1762 233.3039,-66.863 101,-31 99.2831,-30.5346 97.5494,-29.97 95.8256,-29.3353"/>
<polygon fill="#191970" stroke="#191970" points="96.8115,-25.946 86.2476,-25.1365 94.001,-32.3571 96.8115,-25.946"/>
</g>
<!-- Node3 -->
<g id="node4" class="node">
<title>Node3</title>
<polygon fill="#ffffff" stroke="#bfbfbf" points="110.5,-6 110.5,-25 145.5,-25 145.5,-6 110.5,-6"/>
<text text-anchor="middle" x="128" y="-13" font-family="Helvetica,sans-Serif" font-size="10.00" fill="#000000">map</text>
</g>
<!-- Node0&#45;&gt;Node3 -->
<g id="edge3" class="edge">
<title>Node0&#45;&gt;Node3</title>
<path fill="none" stroke="#191970" d="M809.7916,-81.6187C650.0265,-79.0017 274.7553,-68.8915 154,-31 152.922,-30.6617 151.8416,-30.2709 150.767,-29.8389"/>
<polygon fill="#191970" stroke="#191970" points="151.9679,-26.5242 141.4641,-25.1375 148.8105,-32.7718 151.9679,-26.5242"/>
</g>
<!-- Node4 -->
<g id="node5" class="node">
<title>Node4</title>
<polygon fill="#ffffff" stroke="#bfbfbf" points="163.5,-6 163.5,-25 204.5,-25 204.5,-6 163.5,-6"/>
<text text-anchor="middle" x="184" y="-13" font-family="Helvetica,sans-Serif" font-size="10.00" fill="#000000">bitset</text>
</g>
<!-- Node0&#45;&gt;Node4 -->
<g id="edge4" class="edge">
<title>Node0&#45;&gt;Node4</title>
<path fill="none" stroke="#191970" d="M809.9345,-80.6731C660.1805,-76.3108 323.2465,-63.1539 213,-31 211.5271,-30.5704 210.0439,-30.0602 208.5687,-29.4911"/>
<polygon fill="#191970" stroke="#191970" points="209.6888,-26.152 199.1454,-25.109 206.7371,-32.4993 209.6888,-26.152"/>
</g>
<!-- Node5 -->
<g id="node6" class="node">
<title>Node5</title>
<polygon fill="#ffffff" stroke="#bfbfbf" points="222.5,-6 222.5,-25 269.5,-25 269.5,-6 222.5,-6"/>
<text text-anchor="middle" x="246" y="-13" font-family="Helvetica,sans-Serif" font-size="10.00" fill="#000000">iterator</text>
</g>
<!-- Node0&#45;&gt;Node5 -->
<g id="edge5" class="edge">
<title>Node0&#45;&gt;Node5</title>
<path fill="none" stroke="#191970" d="M809.8927,-79.4953C671.7182,-73.2841 377.2807,-57.3644 279,-31 277.0284,-30.4711 275.0298,-29.8295 273.0424,-29.1119"/>
<polygon fill="#191970" stroke="#191970" points="273.9499,-25.6974 263.3741,-25.0617 271.2451,-32.1538 273.9499,-25.6974"/>
</g>
<!-- Node6 -->
<g id="node7" class="node">
<title>Node6</title>
<polygon fill="#ffffff" stroke="#bfbfbf" points="288,-6 288,-25 356,-25 356,-6 288,-6"/>
<text text-anchor="middle" x="322" y="-13" font-family="Helvetica,sans-Serif" font-size="10.00" fill="#000000">osmap.pb.h</text>
</g>
<!-- Node0&#45;&gt;Node6 -->
<g id="edge6" class="edge">
<title>Node0&#45;&gt;Node6</title>
<path fill="none" stroke="#191970" d="M809.6015,-80.8849C708.3874,-77.3766 520.7971,-66.2536 365,-31 361.7493,-30.2644 358.4078,-29.353 355.0928,-28.3433"/>
<polygon fill="#191970" stroke="#191970" points="355.9384,-24.9359 345.3447,-25.0964 353.7263,-31.5772 355.9384,-24.9359"/>
</g>
<!-- Node7 -->
<g id="node8" class="node">
<title>Node7</title>
<polygon fill="#ffffff" stroke="#bfbfbf" points="374.5,-6 374.5,-25 415.5,-25 415.5,-6 374.5,-6"/>
<text text-anchor="middle" x="395" y="-13" font-family="Helvetica,sans-Serif" font-size="10.00" fill="#000000">string</text>
</g>
<!-- Node0&#45;&gt;Node7 -->
<g id="edge7" class="edge">
<title>Node0&#45;&gt;Node7</title>
<path fill="none" stroke="#191970" d="M809.6053,-77.5082C698.9966,-69.4337 495.0631,-52.2465 425,-31 423.5273,-30.5534 422.0413,-30.0354 420.56,-29.4654"/>
<polygon fill="#191970" stroke="#191970" points="421.6008,-26.0944 411.0478,-25.1534 418.7106,-32.47 421.6008,-26.0944"/>
</g>
<!-- Node8 -->
<g id="node9" class="node">
<title>Node8</title>
<polygon fill="#ffffff" stroke="#bfbfbf" points="434,-.5 434,-30.5 544,-30.5 544,-.5 434,-.5"/>
<text text-anchor="start" x="442" y="-18.5" font-family="Helvetica,sans-Serif" font-size="10.00" fill="#000000">google/protobuf/stubs</text>
<text text-anchor="middle" x="489" y="-7.5" font-family="Helvetica,sans-Serif" font-size="10.00" fill="#000000">/common.h</text>
</g>
<!-- Node0&#45;&gt;Node8 -->
<g id="edge8" class="edge">
<title>Node0&#45;&gt;Node8</title>
<path fill="none" stroke="#191970" d="M809.9467,-72.869C745.1654,-63.924 647.8002,-49.4937 554.0337,-31.1155"/>
<polygon fill="#191970" stroke="#191970" points="554.5829,-27.6564 544.0939,-29.1496 553.2247,-34.5234 554.5829,-27.6564"/>
</g>
<!-- Node9 -->
<g id="node10" class="node">
<title>Node9</title>
<polygon fill="#ffffff" stroke="#bfbfbf" points="562,-.5 562,-30.5 656,-30.5 656,-.5 562,-.5"/>
<text text-anchor="start" x="570" y="-18.5" font-family="Helvetica,sans-Serif" font-size="10.00" fill="#000000">google/protobuf/io</text>
<text text-anchor="middle" x="609" y="-7.5" font-family="Helvetica,sans-Serif" font-size="10.00" fill="#000000">/coded_stream.h</text>
</g>
<!-- Node0&#45;&gt;Node9 -->
<g id="edge9" class="edge">
<title>Node0&#45;&gt;Node9</title>
<path fill="none" stroke="#191970" d="M816.5342,-67.489C775.6354,-58.0913 721.924,-45.4635 665.7846,-31.1539"/>
<polygon fill="#191970" stroke="#191970" points="666.5747,-27.7434 656.0191,-28.6538 664.8386,-34.5247 666.5747,-27.7434"/>
</g>
<!-- Node10 -->
<g id="node11" class="node">
<title>Node10</title>
<polygon fill="#ffffff" stroke="#bfbfbf" points="674.5,-6 674.5,-25 793.5,-25 793.5,-6 674.5,-6"/>
<text text-anchor="middle" x="734" y="-13" font-family="Helvetica,sans-Serif" font-size="10.00" fill="#000000">google/protobuf/arena.h</text>
</g>
<!-- Node0&#45;&gt;Node10 -->
<g id="edge10" class="edge">
<title>Node0&#45;&gt;Node10</title>
<path fill="none" stroke="#191970" d="M849.5615,-67.4639C824.1107,-56.0196 789.3623,-40.3945 764.6317,-29.274"/>
<polygon fill="#191970" stroke="#191970" points="765.9137,-26.013 755.358,-25.1039 763.0429,-32.3972 765.9137,-26.013"/>
</g>
<!-- Node11 -->
<g id="node12" class="node">
<title>Node11</title>
<polygon fill="#ffffff" stroke="#bfbfbf" points="811.5,-6 811.5,-25 954.5,-25 954.5,-6 811.5,-6"/>
<text text-anchor="middle" x="883" y="-13" font-family="Helvetica,sans-Serif" font-size="10.00" fill="#000000">google/protobuf/arenastring.h</text>
</g>
<!-- Node0&#45;&gt;Node11 -->
<g id="edge11" class="edge">
<title>Node0&#45;&gt;Node11</title>
<path fill="none" stroke="#191970" d="M883,-67.2967C883,-57.7699 883,-45.3954 883,-35.1306"/>
<polygon fill="#191970" stroke="#191970" points="886.5001,-35.0549 883,-25.055 879.5001,-35.055 886.5001,-35.0549"/>
</g>
<!-- Node12 -->
<g id="node13" class="node">
<title>Node12</title>
<polygon fill="#ffffff" stroke="#bfbfbf" points="972.5,-.5 972.5,-30.5 1101.5,-30.5 1101.5,-.5 972.5,-.5"/>
<text text-anchor="start" x="980.5" y="-18.5" font-family="Helvetica,sans-Serif" font-size="10.00" fill="#000000">google/protobuf/generated</text>
<text text-anchor="middle" x="1037" y="-7.5" font-family="Helvetica,sans-Serif" font-size="10.00" fill="#000000">_message_table_driven.h</text>
</g>
<!-- Node0&#45;&gt;Node12 -->
<g id="edge12" class="edge">
<title>Node0&#45;&gt;Node12</title>
<path fill="none" stroke="#191970" d="M917.5606,-67.4639C939.8727,-57.7567 969.0987,-45.0415 993.0554,-34.6188"/>
<polygon fill="#191970" stroke="#191970" points="994.5152,-37.8006 1002.2887,-30.6017 991.7226,-31.3818 994.5152,-37.8006"/>
</g>
<!-- Node13 -->
<g id="node14" class="node">
<title>Node13</title>
<polygon fill="#ffffff" stroke="#bfbfbf" points="1119.5,-.5 1119.5,-30.5 1248.5,-30.5 1248.5,-.5 1119.5,-.5"/>
<text text-anchor="start" x="1127.5" y="-18.5" font-family="Helvetica,sans-Serif" font-size="10.00" fill="#000000">google/protobuf/generated</text>
<text text-anchor="middle" x="1184" y="-7.5" font-family="Helvetica,sans-Serif" font-size="10.00" fill="#000000">_message_util.h</text>
</g>
<!-- Node0&#45;&gt;Node13 -->
<g id="edge13" class="edge">
<title>Node0&#45;&gt;Node13</title>
<path fill="none" stroke="#191970" d="M950.5503,-67.4639C997.7383,-56.9603 1060.7481,-42.9348 1109.4123,-32.1026"/>
<polygon fill="#191970" stroke="#191970" points="1110.2555,-35.5006 1119.2561,-29.9114 1108.7345,-28.6679 1110.2555,-35.5006"/>
</g>
<!-- Node14 -->
<g id="node15" class="node">
<title>Node14</title>
<polygon fill="#ffffff" stroke="#bfbfbf" points="1267,-.5 1267,-30.5 1381,-30.5 1381,-.5 1267,-.5"/>
<text text-anchor="start" x="1275" y="-18.5" font-family="Helvetica,sans-Serif" font-size="10.00" fill="#000000">google/protobuf/inlined</text>
<text text-anchor="middle" x="1324" y="-7.5" font-family="Helvetica,sans-Serif" font-size="10.00" fill="#000000">_string_field.h</text>
</g>
<!-- Node0&#45;&gt;Node14 -->
<g id="edge14" class="edge">
<title>Node0&#45;&gt;Node14</title>
<path fill="none" stroke="#191970" d="M956.2682,-74.5072C1029.8748,-66.008 1146.7221,-51.2406 1256.878,-31.1106"/>
<polygon fill="#191970" stroke="#191970" points="1257.6336,-34.5304 1266.8322,-29.2734 1256.363,-27.6466 1257.6336,-34.5304"/>
</g>
<!-- Node15 -->
<g id="node16" class="node">
<title>Node15</title>
<polygon fill="#ffffff" stroke="#bfbfbf" points="1399.5,-6 1399.5,-25 1534.5,-25 1534.5,-6 1399.5,-6"/>
<text text-anchor="middle" x="1467" y="-13" font-family="Helvetica,sans-Serif" font-size="10.00" fill="#000000">google/protobuf/metadata.h</text>
</g>
<!-- Node0&#45;&gt;Node15 -->
<g id="edge15" class="edge">
<title>Node0&#45;&gt;Node15</title>
<path fill="none" stroke="#191970" d="M956.3257,-77.3058C1055.1673,-69.7905 1236.4706,-54.1939 1390,-31 1397.6791,-29.8399 1405.7525,-28.4288 1413.6646,-26.9359"/>
<polygon fill="#191970" stroke="#191970" points="1414.4097,-30.3566 1423.5587,-25.0137 1413.0747,-23.4851 1414.4097,-30.3566"/>
</g>
<!-- Node16 -->
<g id="node17" class="node">
<title>Node16</title>
<polygon fill="#ffffff" stroke="#bfbfbf" points="1553,-6 1553,-25 1687,-25 1687,-6 1553,-6"/>
<text text-anchor="middle" x="1620" y="-13" font-family="Helvetica,sans-Serif" font-size="10.00" fill="#000000">google/protobuf/message.h</text>
</g>
<!-- Node0&#45;&gt;Node16 -->
<g id="edge16" class="edge">
<title>Node0&#45;&gt;Node16</title>
<path fill="none" stroke="#191970" d="M956.1886,-79.7514C1078.4367,-74.5002 1331.6992,-60.8035 1544,-31 1551.7824,-29.9075 1559.9662,-28.5076 1567.9639,-26.9972"/>
<polygon fill="#191970" stroke="#191970" points="1568.8105,-30.3979 1577.9505,-25.0398 1567.464,-23.5286 1568.8105,-30.3979"/>
</g>
<!-- Node17 -->
<g id="node18" class="node">
<title>Node17</title>
<polygon fill="#ffffff" stroke="#bfbfbf" points="1705,-.5 1705,-30.5 1829,-30.5 1829,-.5 1705,-.5"/>
<text text-anchor="start" x="1713" y="-18.5" font-family="Helvetica,sans-Serif" font-size="10.00" fill="#000000">google/protobuf/repeated</text>
<text text-anchor="middle" x="1767" y="-7.5" font-family="Helvetica,sans-Serif" font-size="10.00" fill="#000000">_field.h</text>
</g>
<!-- Node0&#45;&gt;Node17 -->
<g id="edge17" class="edge">
<title>Node0&#45;&gt;Node17</title>
<path fill="none" stroke="#191970" d="M956.2519,-81.5748C1097.4347,-78.9825 1417.0518,-69.1871 1694.4922,-31.0733"/>
<polygon fill="#191970" stroke="#191970" points="1695.3349,-34.4899 1704.7582,-29.6473 1694.3717,-27.5565 1695.3349,-34.4899"/>
</g>
<!-- Node18 -->
<g id="node19" class="node">
<title>Node18</title>
<polygon fill="#ffffff" stroke="#bfbfbf" points="1847,-.5 1847,-30.5 1975,-30.5 1975,-.5 1847,-.5"/>
<text text-anchor="start" x="1855" y="-18.5" font-family="Helvetica,sans-Serif" font-size="10.00" fill="#000000">google/protobuf/extension</text>
<text text-anchor="middle" x="1911" y="-7.5" font-family="Helvetica,sans-Serif" font-size="10.00" fill="#000000">_set.h</text>
</g>
<!-- Node0&#45;&gt;Node18 -->
<g id="edge18" class="edge">
<title>Node0&#45;&gt;Node18</title>
<path fill="none" stroke="#191970" d="M956.1938,-80.0273C1145.5235,-73.3992 1649.1,-54.2372 1836.584,-31.0244"/>
<polygon fill="#191970" stroke="#191970" points="1837.1339,-34.4827 1846.6075,-29.7391 1836.2435,-27.5395 1837.1339,-34.4827"/>
</g>
<!-- Node19 -->
<g id="node20" class="node">
<title>Node19</title>
<polygon fill="#ffffff" stroke="#bfbfbf" points="1993.5,-.5 1993.5,-30.5 2118.5,-30.5 2118.5,-.5 1993.5,-.5"/>
<text text-anchor="start" x="2001.5" y="-18.5" font-family="Helvetica,sans-Serif" font-size="10.00" fill="#000000">google/protobuf/unknown</text>
<text text-anchor="middle" x="2056" y="-7.5" font-family="Helvetica,sans-Serif" font-size="10.00" fill="#000000">_field_set.h</text>
</g>
<!-- Node0&#45;&gt;Node19 -->
<g id="edge19" class="edge">
<title>Node0&#45;&gt;Node19</title>
<path fill="none" stroke="#191970" d="M956.05,-80.6605C1165.2767,-75.1453 1765.1409,-57.5486 1983.1861,-30.9163"/>
<polygon fill="#191970" stroke="#191970" points="1983.7952,-34.3672 1993.2775,-29.6413 1982.9176,-27.4225 1983.7952,-34.3672"/>
</g>
<!-- Node20 -->
<g id="node21" class="node">
<title>Node20</title>
<polygon fill="#ffffff" stroke="#bfbfbf" points="2137,-6 2137,-25 2231,-25 2231,-6 2137,-6"/>
<text text-anchor="middle" x="2184" y="-13" font-family="Helvetica,sans-Serif" font-size="10.00" fill="#000000">opencv2/core.hpp</text>
</g>
<!-- Node0&#45;&gt;Node20 -->
<g id="edge20" class="edge">
<title>Node0&#45;&gt;Node20</title>
<path fill="none" stroke="#191970" d="M956.09,-81.6686C1187.151,-78.695 1899.9935,-66.7865 2128,-31 2133.4189,-30.1495 2139.0622,-28.961 2144.5902,-27.6165"/>
<polygon fill="#191970" stroke="#191970" points="2145.5529,-30.9825 2154.3426,-25.0671 2143.7825,-24.2101 2145.5529,-30.9825"/>
</g>
<!-- Node21 -->
<g id="node22" class="node">
<title>Node21</title>
<polygon fill="#ffffff" stroke="#bfbfbf" points="2249,-6 2249,-25 2325,-25 2325,-6 2249,-6"/>
<text text-anchor="middle" x="2287" y="-13" font-family="Helvetica,sans-Serif" font-size="10.00" fill="#000000">dummymap.h</text>
</g>
<!-- Node0&#45;&gt;Node21 -->
<g id="edge21" class="edge">
<title>Node0&#45;&gt;Node21</title>
<path fill="none" stroke="#191970" d="M956.3711,-80.9184C1220.4708,-75.06 2113.6916,-53.7553 2240,-31 2244.1857,-30.2459 2248.5099,-29.204 2252.7626,-28.0136"/>
<polygon fill="#191970" stroke="#191970" points="2253.9273,-31.3173 2262.4569,-25.0325 2251.8698,-24.6265 2253.9273,-31.3173"/>
</g>
</g>
</svg>
